<svg xmlns="http://www.w3.org/2000/svg" width="828" height="736">
<path style="fill:#f9fbfb; stroke:none;" d="M0 0L0 736L828 736L828 0L0 0z"/>
<path style="fill:#b5d7ed; stroke:none;" d="M378 147L378 148L391 148L378 147z"/>
<path style="fill:#78b5f1; stroke:none;" d="M391 147.424C376.37 149.34 361.656 148.972 347 151.614C301.396 159.836 258.416 177.714 221 205.155C205.256 216.702 189.953 230.187 177.189 245C171.99 251.034 170.029 261.885 180.001 264.566C189.325 267.073 195.448 256.58 201.001 251C215.542 236.388 231.575 223.111 249 212.053C298.291 180.774 358.538 163.606 417 169.17C467.768 174.001 517.081 192.253 558 222.895C570.915 232.566 582.705 243.492 593.985 254.999C598.592 259.698 603.481 266.369 610.996 264.181C622.531 260.824 617.568 249.198 612.154 243C598.901 227.827 583.366 214.587 567 202.86C528.894 175.555 484.408 157.417 438 150.729C423.217 148.599 405.852 145.48 391 147.424z"/>
<path style="fill:#b5d7ed; stroke:none;" d="M400 147L400 148L413 148L400 147M366 148L366 149L372 149L366 148M419 148L419 149L425 149L419 148M358 149L358 150L362 150L358 149M429 149L429 150L433 150L429 149M351 150L351 151L355 151L351 150M436 150L436 151L440 151L436 150M345 151L345 152L348 152L345 151M443 151L443 152L446 152L443 151M340 152L340 153L343 153L340 152M449.667 152.333L450.333 152.667L449.667 152.333M335 153L335 154L338 154L335 153M454.667 153.333L455.333 153.667L454.667 153.333M331.667 154.333L332.333 154.667L331.667 154.333M459.667 154.333L460.333 154.667L459.667 154.333M327.667 155.333L328.333 155.667L327.667 155.333M463.667 155.333L464.333 155.667L463.667 155.333M323.667 156.333L324.333 156.667L323.667 156.333M467.667 156.333L468.333 156.667L467.667 156.333M319.667 157.333L320.333 157.667L319.667 157.333M471.667 157.333L472.333 157.667L471.667 157.333M315.667 158.333L316.333 158.667L315.667 158.333M474.667 158.333L475.333 158.667L474.667 158.333M312.667 159.333L313.333 159.667L312.667 159.333M478 159L479 160L478 159M309 160L310 161L309 160M481.667 160.333L482.333 160.667L481.667 160.333M305.667 161.333L306.333 161.667L305.667 161.333M484.667 161.333L485.333 161.667L484.667 161.333M302.667 162.333L303.333 162.667L302.667 162.333M488 162L489 163L488 162M300 163L301 164L300 163M490.667 163.333L491.333 163.667L490.667 163.333M297 164L298 165L297 164M493 164L494 165L493 164M294 165L295 166L294 165M496 165L497 166L496 165M291.667 166.333L292.333 166.667L291.667 166.333M499 166L500 167L499 166M289 167L290 168L289 167M501.667 167.333L502.333 167.667L501.667 167.333M286 168L287 169L286 168M386 168L386 169L405 169L386 168M504 168L505 169L504 168M284 169L285 170L284 169M371 169L371 170L377 170L371 169M414 169L414 170L420 170L414 169M506 169L507 170L506 169M281.667 170.333L282.333 170.667L281.667 170.333M362 170L362 171L366 171L362 170M425 170L425 171L429 171L425 170M509 170L510 171L509 170M279 171L280 172L279 171M355 171L355 172L359 172L355 171M432 171L432 172L436 172L432 171M511 171L512 172L511 171M277 172L278 173L277 172M349 172L349 173L352 173L349 172M439 172L439 173L442 173L439 172M513.667 172.333L514.333 172.667L513.667 172.333M274.667 173.333L275.333 173.667L274.667 173.333M344 173L344 174L347 174L344 173M445.667 173.333L446.333 173.667L445.667 173.333M516 173L517 174L516 173M272 174L273 175L272 174M339.667 174.333L340.333 174.667L339.667 174.333M450.667 174.333L451.333 174.667L450.667 174.333M518 174L519 175L518 174M270 175L271 176L270 175M335.667 175.333L336.333 175.667L335.667 175.333M455.667 175.333L456.333 175.667L455.667 175.333M520 175L521 176L520 175M268 176L269 177L268 176M331.667 176.333L332.333 176.667L331.667 176.333M459.667 176.333L460.333 176.667L459.667 176.333M522 176L523 177L522 176M266 177L267 178L266 177M327.667 177.333L328.333 177.667L327.667 177.333M463.667 177.333L464.333 177.667L463.667 177.333M524 177L525 178L524 177M264 178L265 179L264 178M323.667 178.333L324.333 178.667L323.667 178.333M467 178L468 179L467 178M526 178L527 179L526 178M262 179L263 180L262 179M320 179L321 180L320 179M470.667 179.333L471.333 179.667L470.667 179.333M528 179L529 180L528 179M260 180L261 181L260 180M316.667 180.333L317.333 180.667L316.667 180.333M473.667 180.333L474.333 180.667L473.667 180.333M530 180L531 181L530 180M258 181L259 182L258 181M313.667 181.333L314.333 181.667L313.667 181.333M477 181L478 182L477 181M532 181L533 182L532 181M310 182L311 183L310 182M480 182L481 183L480 182M534 182L535 183L534 182M255 183L256 184L255 183M307 183L308 184L307 183M483 183L484 184L483 183M536 183L537 184L536 183M253 184L254 185L253 184M304.667 184.333L305.333 184.667L304.667 184.333M486 184L487 185L486 184M537 184L538 185L537 184M251 185L252 186L251 185M302 185L303 186L302 185M488.667 185.333L489.333 185.667L488.667 185.333M539 185L540 186L539 185M249 186L250 187L249 186M299 186L300 187L299 186M491 186L492 187L491 186M541 186L542 187L541 186M247 187L248 188L247 187M296 187L297 188L296 187M494 187L495 188L494 187M543 187L544 188L543 187M246 188L247 189L246 188M294 188L295 189L294 188M496 188L497 189L496 188M244 189L245 190L244 189M291.667 189.333L292.333 189.667L291.667 189.333M499 189L500 190L499 189M546 189L547 190L546 189M289 190L290 191L289 190M501 190L502 191L501 190M548 190L549 191L548 190M241 191L242 192L241 191M287 191L288 192L287 191M503 191L504 192L503 191M549 191L550 192L549 191M239 192L240 193L239 192M284 192L285 193L284 192M506 192L507 193L506 192M551 192L552 193L551 192M238 193L239 194L238 193M282 193L283 194L282 193M508 193L509 194L508 193M236 194L237 195L236 194M280 194L281 195L280 194M510 194L511 195L510 194M554 194L555 195L554 194M278 195L279 196L278 195M512 195L513 196L512 195M556 195L557 196L556 195M233 196L234 197L233 196M276 196L277 197L276 196M514 196L515 197L514 196M557 196L558 197L557 196M274 197L275 198L274 197M516 197L517 198L516 197M559 197L560 198L559 197M230 198L231 199L230 198M272 198L273 199L272 198M518 198L519 199L518 198M560 198L561 199L560 198M229 199L230 200L229 199M270 199L271 200L270 199M520 199L521 200L520 199M227 200L228 201L227 200M268 200L269 201L268 200M522 200L523 201L522 200M563 200L564 201L563 200M226 201L227 202L226 201M266 201L267 202L266 201M524 201L525 202L524 201M264 202L265 203L264 202M526 202L527 203L526 202M566 202L567 203L566 202M223 203L224 204L223 203M263 203L264 204L263 203M528 203L529 204L528 203M567 203L568 204L567 203M261 204L262 205L261 204M529 204L530 205L529 204M569 204L570 205L569 204M220 205L221 206L220 205M259 205L260 206L259 205M531 205L532 206L531 205M570 205L571 206L570 205M219 206L220 207L219 206M257 206L258 207L257 206M533 206L534 207L533 206M256 207L257 208L256 207M535 207L536 208L535 207M573 207L574 208L573 207M216 208L217 209L216 208M254 208L255 209L254 208M536 208L537 209L536 208M574 208L575 209L574 208M215 209L216 210L215 209M538 209L539 210L538 209M575 209L576 210L575 209M214 210L215 211L214 210M251 210L252 211L251 210M539 210L540 211L539 210M249 211L250 212L249 211M541 211L542 212L541 211M578 211L579 212L578 211M211 212L212 213L211 212M248 212L249 213L248 212M579 212L580 213L579 212M210 213L211 214L210 213M246 213L247 214L246 213M544 213L545 214L544 213M546 214L547 215L546 214M243 215L244 216L243 215M547 215L548 216L547 215M583 215L584 216L583 215M206 216L207 217L206 216M584 216L585 217L584 216M205 217L206 218L205 217M240 217L241 218L240 217M550 217L551 218L550 217M585 217L586 218L585 217M204 218L205 219L204 218M239 218L240 219L239 218M586 218L587 219L586 218M203 219L204 220L203 219M237 219L238 220L237 219M553 219L554 220L553 219M202 220L203 221L202 220M236 220L237 221L236 220M554 220L555 221L554 220M556 221L557 222L556 221M590 221L591 222L590 221M233 222L234 223L233 222M557 222L558 223L557 222M591 222L592 223L591 222M198 223L199 224L198 223M232 223L233 224L232 223M592 223L593 224L592 223M197 224L198 225L197 224M560 224L561 225L560 224M593 224L594 225L593 224M196 225L197 226L196 225M229 225L230 226L229 225M561 225L562 226L561 225M594 225L595 226L594 225M195 226L196 227L195 226M228 226L229 227L228 226M562 226L563 227L562 226M194 227L195 228L194 227M227 227L228 228L227 227M193 228L194 229L193 228M565 228L566 229L565 228M192 229L193 230L192 229M224 229L225 230L224 229M566 229L567 230L566 229M191 230L192 231L191 230M223 230L224 231L223 230M190 231L191 232L190 231M189 232L190 233L189 232M389 232L389 233L402 233L389 232M570 232L571 233L570 232M188 233L189 234L188 233M219 233L220 234L219 233M374 233L374 234L380 234L374 233z"/>
<path style="fill:#78b5f1; stroke:none;" d="M564 318C563.776 308.464 557.377 303.374 551 297C538.66 284.665 524.88 273.926 510 264.811C443.871 224.301 356.641 222.211 289 260.424C271.673 270.213 255.182 281.985 241 296.004C236.052 300.895 227.921 307.423 227.515 315C227.132 322.125 234.412 327.244 241 324.837C248.484 322.103 254.445 313.434 260 308.015C315.052 254.311 403.971 238.334 474 270.309C491.176 278.151 507.375 287.579 522 299.615C528.354 304.844 536.492 316.707 544.089 319.357C549.51 321.248 558.185 318.016 564 318z"/>
<path style="fill:#b5d7ed; stroke:none;" d="M411 233L411 234L417 234L411 233M571 233L572 234L571 233M187 234L188 235L187 234M218 234L219 235L218 234M366 234L366 235L370 235L366 234M422 234L422 235L425 235L422 234M572 234L573 235L572 234M217 235L218 236L217 235M359 235L359 236L362 236L359 235M429 235L429 236L432 236L429 235M573 235L574 236L573 235M216 236L217 237L216 236M354 236L354 237L357 237L354 236M435.667 236.333L436.333 236.667L435.667 236.333M184 237L185 238L184 237M215 237L216 238L215 237M349 237L349 238L352 238L349 237M440.667 237.333L441.333 237.667L440.667 237.333M183 238L184 239L183 238M345.667 238.333L346.333 238.667L345.667 238.333M444.667 238.333L445.333 238.667L444.667 238.333M182 239L183 240L182 239M341.667 239.333L342.333 239.667L341.667 239.333M448.667 239.333L449.333 239.667L448.667 239.333M578 239L579 240L578 239M181 240L182 241L181 240M211 240L212 241L211 240M337.667 240.333L338.333 240.667L337.667 240.333M452.667 240.333L453.333 240.667L452.667 240.333M579 240L580 241L579 240M180 241L181 242L180 241M210 241L211 242L210 241M334 241L335 242L334 241M456.667 241.333L457.333 241.667L456.667 241.333M580 241L581 242L580 241M610 241L611 242L610 241M179 242L180 243L179 242M209 242L210 243L209 242M330.667 242.333L331.333 242.667L330.667 242.333M459.667 242.333L460.333 242.667L459.667 242.333M581 242L582 243L581 242M611 242L612 243L611 242M178 243L179 244L178 243M208 243L209 244L208 243M327.667 243.333L328.333 243.667L327.667 243.333M463 243L464 244L463 243M582 243L583 244L582 243M612 243L613 244L612 243M177 244L178 245L177 244M207 244L208 245L207 244M324.667 244.333L325.333 244.667L324.667 244.333M466 244L467 245L466 244M583 244L584 245L583 244M613 244L614 245L613 244M206 245L207 246L206 245M322 245L323 246L322 245M468.667 245.333L469.333 245.667L468.667 245.333M584 245L585 246L584 245M614 245L615 246L614 245M205 246L206 247L205 246M319 246L320 247L319 246M471.667 246.333L472.333 246.667L471.667 246.333M585 246L586 247L585 246M615 246L616 247L615 246M204 247L205 248L204 247M316 247L317 248L316 247M474 247L475 248L474 247M586 247L587 248L586 247M616 247L617 248L616 247M174 248L175 249L174 248M203 248L204 249L203 248M314 248L315 249L314 248M477 248L478 249L477 248M587 248L588 249L587 248M173 249L174 250L173 249M202 249L203 250L202 249M311 249L312 250L311 249M479 249L480 250L479 249M617 249L618 250L617 249M201 250L202 251L201 250M309 250L310 251L309 250M481.667 250.333L482.333 250.667L481.667 250.333M172 251L172 254L173 254L172 251M200 251L201 252L200 251M307 251L308 252L307 251M484 251L485 252L484 251M618 251L618 254L619 254L618 251M199 252L200 253L199 252M304 252L305 253L304 252M486 252L487 253L486 252M591 252L592 253L591 252M198 253L199 254L198 253M302 253L303 254L302 253M488 253L489 254L488 253M592 253L593 254L592 253M197 254L198 255L197 254M300 254L301 255L300 254M379 254L379 255L385 255L379 254M406 254L406 255L412 255L406 254M490 254L491 255L490 254M593 254L594 255L593 254M196 255L197 256L196 255M298 255L299 256L298 255M370 255L370 256L374 256L370 255M418 255L418 256L421 256L418 255M492 255L493 256L492 255M594 255L595 256L594 255M618 255L618 258L619 258L618 255M172 256L172 259L173 259L172 256M195 256L196 257L195 256M296 256L297 257L296 256M363 256L363 257L367 257L363 256M425 256L425 257L428 257L425 256M494 256L495 257L494 256M595 256L596 257L595 256M194 257L195 258L194 257M294 257L295 258L294 257M358 257L358 258L361 258L358 257M431.667 257.333L432.333 257.667L431.667 257.333M496 257L497 258L496 257M596 257L597 258L596 257M292 258L293 259L292 258M353 258L353 259L356 259L353 258M436.667 258.333L437.333 258.667L436.667 258.333M498 258L499 259L498 258M597 258L598 259L597 258M290 259L291 260L290 259M349.667 259.333L350.333 259.667L349.667 259.333M440.667 259.333L441.333 259.667L440.667 259.333M500 259L501 260L500 259M598 259L599 260L598 259M617 259L618 260L617 259M345.667 260.333L346.333 260.667L345.667 260.333M444.667 260.333L445.333 260.667L444.667 260.333M502 260L503 261L502 260M174 261L175 262L174 261M287 261L288 262L287 261M341.667 261.333L342.333 261.667L341.667 261.333M448.667 261.333L449.333 261.667L448.667 261.333M504 261L505 262L504 261M175 262L176 263L175 262M285 262L286 263L285 262M338.667 262.333L339.333 262.667L338.667 262.333M452 262L453 263L452 262M601 262L602 263L601 262M615 262L616 263L615 262M176 263L177 264L176 263M188 263L189 264L188 263M283 263L284 264L283 263M335.667 263.333L336.333 263.667L335.667 263.333M455.667 263.333L456.333 263.667L455.667 263.333M507 263L508 264L507 263M602 263L603 264L602 263M613 263L614 264L613 263M178 264L179 265L178 264M187 264L188 265L187 264M332 264L333 265L332 264M458.667 264.333L459.333 264.667L458.667 264.333M509 264L510 265L509 264M604.667 264.333L605.333 264.667L604.667 264.333M610.667 264.333L611.333 264.667L610.667 264.333M181 265L181 266L184 266L181 265M280 265L281 266L280 265M329 265L330 266L329 265M461 265L462 266L461 265M278 266L279 267L278 266M326.667 266.333L327.333 266.667L326.667 266.333M464 266L465 267L464 266M512 266L513 267L512 266M277 267L278 268L277 267M324 267L325 268L324 267M466.667 267.333L467.333 267.667L466.667 267.333M514 267L515 268L514 267M275 268L276 269L275 268M321 268L322 269L321 268M469 268L470 269L469 268M515 268L516 269L515 268M319 269L320 270L319 269M471.667 269.333L472.333 269.667L471.667 269.333M517 269L518 270L517 269M272 270L273 271L272 270M316.667 270.333L317.333 270.667L316.667 270.333M474 270L475 271L474 270M518 270L519 271L518 270M271 271L272 272L271 271M314 271L315 272L314 271M476 271L477 272L476 271M520 271L521 272L520 271M269 272L270 273L269 272M312 272L313 273L312 272M478 272L479 273L478 272M521 272L522 273L521 272M268 273L269 274L268 273M310 273L311 274L310 273M480 273L481 274L480 273M308 274L309 275L308 274M482.667 274.333L483.333 274.667L482.667 274.333M524 274L525 275L524 274M265 275L266 276L265 275M306 275L307 276L306 275M485 275L486 276L485 275M304 276L305 277L304 276M487 276L488 277L487 276M527 276L528 277L527 276M262 277L263 278L262 277M302 277L303 278L302 277M488 277L489 278L488 277M528 277L529 278L528 277M261 278L262 279L261 278M300 278L301 279L300 278M490 278L491 279L490 278M529 278L530 279L529 278M260 279L261 280L260 279M298 279L299 280L298 279M492 279L493 280L492 279M494 280L495 281L494 280M532 280L533 281L532 280M257 281L258 282L257 281M295 281L296 282L295 281M496 281L497 282L496 281M533 281L534 282L533 281M256 282L257 283L256 282M293 282L294 283L293 282M497 282L498 283L497 282M255 283L256 284L255 283M499 283L500 284L499 283M290 284L291 285L290 284M537 284L538 285L537 284M288 285L289 286L288 285M502 285L503 286L502 285M538 285L539 286L538 285M251 286L252 287L251 286M287 286L288 287L287 286M504 286L505 287L504 286M539 286L540 287L539 286M250 287L251 288L250 287M285 287L286 288L285 287M505 287L506 288L505 287M540 287L541 288L540 287M249 288L250 289L249 288M284 288L285 289L284 288M507 288L508 289L507 288M248 289L249 290L248 289M282 289L283 290L282 289M508 289L509 290L508 289M281 290L282 291L281 290M544 290L545 291L544 290M279 291L280 292L279 291M511 291L512 292L511 291M545 291L546 292L545 291M278 292L279 293L278 292M546 292L547 293L546 292M514 293L515 294L514 293M547 293L548 294L547 293M275 294L276 295L275 294M515 294L516 295L515 294M548 294L549 295L548 294M274 295L275 296L274 295M549 295L550 296L549 295M273 296L274 297L273 296M518 296L519 297L518 296M550 296L551 297L550 296M519 297L520 298L519 297M551 297L552 298L551 297M238 298L239 299L238 298M270 298L271 299L270 298M520 298L521 299L520 298M552 298L553 299L552 298M237 299L238 300L237 299M269 299L270 300L269 299M553 299L554 300L553 299M523 300L524 301L523 300M554 300L555 301L554 300M524 301L525 302L524 301M555 301L556 302L555 301M525 302L526 303L525 302M556 302L557 303L556 302M264 303L265 304L264 303M526 303L527 304L526 303M557 303L558 304L557 303M263 304L264 305L263 304M527 304L528 305L527 304M558 304L559 305L558 304M262 305L263 306L262 305M231 306L232 307L231 306M261 306L262 307L261 306M230 307L231 308L230 307M229 308L230 309L229 308M532 308L533 309L532 308M533 309L534 310L533 309M562 309L563 310L562 309M228 310L229 311L228 310M534 310L535 311L534 310M227 311L227 314L228 314L227 311M535 311L536 312L535 311M563 311L564 312L563 311M536 312L537 313L536 312M537 313L538 314L537 313M538 314L539 315L538 314M539 315L540 316L539 315M564 315L565 316L564 315M540 316L541 317L540 316M227.333 317.667L227.667 318.333L227.333 317.667M249 318L250 319L249 318M382 318L382 319L392 319L382 318z"/>
<path style="fill:#78b5f1; stroke:none;" d="M473 365L487 350C450.485 312.873 381.954 311.202 337 330.427C319.709 337.822 304.226 348.71 291.001 362C285.658 367.369 278.209 375.478 285.279 382.772C289.29 386.91 295.369 386.578 299.715 383.196C315.354 371.024 327.241 357.601 346 349.579C374.933 337.205 408.312 335.256 438 346.425C450.693 351.2 461.046 359.053 473 365z"/>
<path style="fill:#b5d7ed; stroke:none;" d="M401 318L401 319L410 319L401 318z"/>
<path style="fill:#419589; stroke:none;" d="M555 318.425C535.458 321.085 516.377 327.618 500 338.746C487.544 347.21 477.309 357.388 469.078 370C425.979 436.036 459.37 530.454 538 549.116C551.873 552.408 566.83 553.454 581 551.714C598.072 549.617 614.32 543.708 629 534.796C640.474 527.829 650.505 518.522 658.789 508C710.444 442.394 675.894 342.092 595 321.873C582.495 318.748 567.863 316.674 555 318.425z"/>
<path style="fill:#82b9b2; stroke:none;" d="M571 318L571 319L578 319L571 318z"/>
<path style="fill:#b5d7ed; stroke:none;" d="M578.667 318.333L579.333 318.667L578.667 318.333M248 319L249 320L248 319M374 319L374 320L378 320L374 319M414 319L414 320L417 320L414 319z"/>
<path style="fill:#82b9b2; stroke:none;" d="M583.667 319.333L584.333 319.667L583.667 319.333z"/>
<path style="fill:#b5d7ed; stroke:none;" d="M585.667 319.333L586.333 319.667L585.667 319.333M228 320L229 321L228 320M247 320L248 321L247 320M368 320L368 321L371 321L368 320M421 320L421 321L424 321L421 320M541 320L542 321L541 320z"/>
<path style="fill:#82b9b2; stroke:none;" d="M542.667 320.333L543.333 320.667L542.667 320.333M589.667 320.333L590.333 320.667L589.667 320.333z"/>
<path style="fill:#b5d7ed; stroke:none;" d="M591 320L592 321L591 320M246 321L247 322L246 321M364.667 321.333L365.333 321.667L364.667 321.333M427.667 321.333L428.333 321.667L427.667 321.333M537 321L538 322L537 321z"/>
<path style="fill:#82b9b2; stroke:none;" d="M538.667 321.333L539.333 321.667L538.667 321.333M593.667 321.333L594.333 321.667L593.667 321.333z"/>
<path style="fill:#b5d7ed; stroke:none;" d="M595 321L596 322L595 321M245 322L246 323L245 322M359 322L359 323L362 323L359 322M430.667 322.333L431.333 322.667L430.667 322.333M533 322L534 323L533 322z"/>
<path style="fill:#82b9b2; stroke:none;" d="M534.667 322.333L535.333 322.667L534.667 322.333M597.667 322.333L598.333 322.667L597.667 322.333z"/>
<path style="fill:#b5d7ed; stroke:none;" d="M599 322L600 323L599 322M230 323L231 324L230 323M244 323L245 324L244 323M355.667 323.333L356.333 323.667L355.667 323.333M434.667 323.333L435.333 323.667L434.667 323.333M530 323L531 324L530 323z"/>
<path style="fill:#82b9b2; stroke:none;" d="M531 323L532 324L531 323M601 323L602 324L601 323z"/>
<path style="fill:#b5d7ed; stroke:none;" d="M602 323L603 324L602 323M232 324L233 325L232 324M242 324L243 325L242 324M352.667 324.333L353.333 324.667L352.667 324.333M438.667 324.333L439.333 324.667L438.667 324.333M527 324L528 325L527 324z"/>
<path style="fill:#82b9b2; stroke:none;" d="M528 324L529 325L528 324M604 324L605 325L604 324z"/>
<path style="fill:#b5d7ed; stroke:none;" d="M605 324L606 325L605 324M234.667 325.333L235.333 325.667L234.667 325.333M239.667 325.333L240.333 325.667L239.667 325.333M349.667 325.333L350.333 325.667L349.667 325.333M441.667 325.333L442.333 325.667L441.667 325.333z"/>
<path style="fill:#82b9b2; stroke:none;" d="M525 325L526 326L525 325M607 325L608 326L607 325z"/>
<path style="fill:#b5d7ed; stroke:none;" d="M608 325L609 326L608 325M346.667 326.333L347.333 326.667L346.667 326.333M444.667 326.333L445.333 326.667L444.667 326.333M522 326L523 327L522 326z"/>
<path style="fill:#82b9b2; stroke:none;" d="M523 326L524 327L523 326M609 326L610 327L609 326z"/>
<path style="fill:#b5d7ed; stroke:none;" d="M610 326L611 327L610 326M343.667 327.333L344.333 327.667L343.667 327.333M447 327L448 328L447 327M519 327L520 328L519 327z"/>
<path style="fill:#82b9b2; stroke:none;" d="M520 327L521 328L520 327M612 327L613 328L612 327z"/>
<path style="fill:#b5d7ed; stroke:none;" d="M613 327L614 328L613 327M341 328L342 329L341 328M450 328L451 329L450 328M517 328L518 329L517 328z"/>
<path style="fill:#82b9b2; stroke:none;" d="M518 328L519 329L518 328M614 328L615 329L614 328z"/>
<path style="fill:#b5d7ed; stroke:none;" d="M615 328L616 329L615 328M339 329L340 330L339 329M452.667 329.333L453.333 329.667L452.667 329.333M515 329L516 330L515 329z"/>
<path style="fill:#82b9b2; stroke:none;" d="M516 329L517 330L516 329M616 329L617 330L616 329z"/>
<path style="fill:#b5d7ed; stroke:none;" d="M617 329L618 330L617 329M336 330L337 331L336 330M455 330L456 331L455 330M513 330L514 331L513 330z"/>
<path style="fill:#82b9b2; stroke:none;" d="M514 330L515 331L514 330M618 330L619 331L618 330z"/>
<path style="fill:#b5d7ed; stroke:none;" d="M619 330L620 331L619 330M334 331L335 332L334 331M457 331L458 332L457 331M511 331L512 332L511 331z"/>
<path style="fill:#82b9b2; stroke:none;" d="M512 331L513 332L512 331z"/>
<path style="fill:#b5d7ed; stroke:none;" d="M621 331L622 332L621 331M332 332L333 333L332 332M459 332L460 333L459 332M509 332L510 333L509 332M623 332L624 333L623 332M330 333L331 334L330 333M461 333L462 334L461 333z"/>
<path style="fill:#82b9b2; stroke:none;" d="M508 333L509 334L508 333M624 333L625 334L624 333z"/>
<path style="fill:#b5d7ed; stroke:none;" d="M328 334L329 335L328 334M463 334L464 335L463 334M506 334L507 335L506 334M626 334L627 335L626 334M326 335L327 336L326 335M465 335L466 336L465 335M504 335L505 336L504 335z"/>
<path style="fill:#82b9b2; stroke:none;" d="M505 335L506 336L505 335z"/>
<path style="fill:#b5d7ed; stroke:none;" d="M628 335L629 336L628 335M324 336L325 337L324 336M467 336L468 337L467 336z"/>
<path style="fill:#82b9b2; stroke:none;" d="M503 336L504 337L503 336M629 336L630 337L629 336z"/>
<path style="fill:#b5d7ed; stroke:none;" d="M322 337L323 338L322 337M501 337L502 338L501 337M631 337L632 338L631 337M321 338L322 339L321 338M470 338L471 339L470 338z"/>
<path style="fill:#82b9b2; stroke:none;" d="M500 338L501 339L500 338M632 338L633 339L632 338z"/>
<path style="fill:#b5d7ed; stroke:none;" d="M319 339L320 340L319 339M385 339L385 340L396 340L385 339M397 339L397 340L407 340L397 339M472 339L473 340L472 339M498 339L499 340L498 339M634 339L635 340L634 339M317 340L318 341L317 340M377 340L377 341L381 341L377 340M411 340L411 341L415 341L411 340M497 340L498 341L497 340z"/>
<path style="fill:#82b9b2; stroke:none;" d="M635 340L636 341L635 340z"/>
<path style="fill:#b5d7ed; stroke:none;" d="M316 341L317 342L316 341M371.667 341.333L372.333 341.667L371.667 341.333M418 341L418 342L421 342L418 341M475 341L476 342L475 341z"/>
<path style="fill:#82b9b2; stroke:none;" d="M496 341L497 342L496 341M636 341L637 342L636 341z"/>
<path style="fill:#b5d7ed; stroke:none;" d="M314 342L315 343L314 342M367.667 342.333L368.333 342.667L367.667 342.333M423.667 342.333L424.333 342.667L423.667 342.333M477 342L478 343L477 342M494 342L495 343L494 342M638 342L639 343L638 342M313 343L314 344L313 343M363.667 343.333L364.333 343.667L363.667 343.333M427.667 343.333L428.333 343.667L427.667 343.333M478 343L479 344L478 343M493 343L494 344L493 343z"/>
<path style="fill:#82b9b2; stroke:none;" d="M639 343L640 344L639 343z"/>
<path style="fill:#b5d7ed; stroke:none;" d="M311 344L312 345L311 344M359.667 344.333L360.333 344.667L359.667 344.333M431.667 344.333L432.333 344.667L431.667 344.333M480 344L481 345L480 344z"/>
<path style="fill:#82b9b2; stroke:none;" d="M492 344L493 345L492 344M640 344L641 345L640 344z"/>
<path style="fill:#b5d7ed; stroke:none;" d="M310 345L311 346L310 345M356.667 345.333L357.333 345.667L356.667 345.333M434.667 345.333L435.333 345.667L434.667 345.333M481 345L482 346L481 345M353.667 346.333L354.333 346.667L353.667 346.333M437.667 346.333L438.333 346.667L437.667 346.333M489 346L490 347L489 346M643 346L644 347L643 346M307 347L308 348L307 347M350.667 347.333L351.333 347.667L350.667 347.333M440 347L441 348L440 347M484 347L485 348L484 347M488 347L489 348L488 347M644 347L645 348L644 347M348 348L349 349L348 348M443 348L444 349L443 348M485 348L486 349L485 348M487 348L488 349L487 348M645 348L646 349L645 348M346 349L347 350L346 349M445 349L446 350L445 349M646 349L647 350L646 349M303 350L304 351L303 350M343.667 350.333L344.333 350.667L343.667 350.333M447 350L448 351L447 350z"/>
<path style="fill:#82b9b2; stroke:none;" d="M647 350L648 351L647 350z"/>
<path style="fill:#b5d7ed; stroke:none;" d="M302 351L303 352L302 351M341 351L342 352L341 351M449 351L450 352L449 351z"/>
<path style="fill:#82b9b2; stroke:none;" d="M648 351L649 352L648 351z"/>
<path style="fill:#b5d7ed; stroke:none;" d="M301 352L302 353L301 352M339 352L340 353L339 352M452 352L453 353L452 352z"/>
<path style="fill:#82b9b2; stroke:none;" d="M649 352L650 353L649 352z"/>
<path style="fill:#b5d7ed; stroke:none;" d="M337 353L338 354L337 353M454 353L455 354L454 353z"/>
<path style="fill:#82b9b2; stroke:none;" d="M650 353L651 354L650 353z"/>
<path style="fill:#b5d7ed; stroke:none;" d="M335 354L336 355L335 354z"/>
<path style="fill:#82b9b2; stroke:none;" d="M651 354L652 355L651 354z"/>
<path style="fill:#b5d7ed; stroke:none;" d="M297 355L298 356L297 355M334 355L335 356L334 355M457 355L458 356L457 355M652 355L653 356L652 355M296 356L297 357L296 356M332 356L333 357L332 356M459 356L460 357L459 356M653 356L654 357L653 356M295 357L296 358L295 357M330 357L331 358L330 357M654 357L655 358L654 357M294 358L295 359L294 358M328 358L329 359L328 358M462 358L463 359L462 358M655 358L656 359L655 358M293 359L294 360L293 359M327 359L328 360L327 359M464 359L465 360L464 359M292 360L293 361L292 360M291 361L292 362L291 361M324 361L325 362L324 361M467 361L468 362L467 361z"/>
<path style="fill:#82b9b2; stroke:none;" d="M657 361L658 362L657 361z"/>
<path style="fill:#b5d7ed; stroke:none;" d="M290 362L291 363L290 362M468 362L469 363L468 362z"/>
<path style="fill:#82b9b2; stroke:none;" d="M658 362L659 363L658 362z"/>
<path style="fill:#b5d7ed; stroke:none;" d="M289 363L290 364L289 363M321 363L322 364L321 363M659 363L660 364L659 363M288 364L289 365L288 364M320 364L321 365L320 364M471 364L472 365L471 364M287 365L288 366L287 365M318 365L319 366L318 365z"/>
<path style="fill:#82b9b2; stroke:none;" d="M472 365L473 366L472 365M660 365L661 366L660 365z"/>
<path style="fill:#b5d7ed; stroke:none;" d="M286 366L287 367L286 366M317 366L318 367L317 366M471 366L472 367L471 366z"/>
<path style="fill:#82b9b2; stroke:none;" d="M661 366L662 367L661 366z"/>
<path style="fill:#b5d7ed; stroke:none;" d="M285 367L286 368L285 367M316 367L317 368L316 367M470 367L471 368L470 367M662 367L663 368L662 367M284 368L285 369L284 368M315 368L316 369L315 368z"/>
<path style="fill:#82b9b2; stroke:none;" d="M469 369L470 370L469 369M663 369L664 370L663 369z"/>
<path style="fill:#b5d7ed; stroke:none;" d="M283 370L284 371L283 370M468 370L469 371L468 370M664 370L665 371L664 370M311 371L312 372L311 371M282.333 372.667L282.667 373.333L282.333 372.667M310 372L311 373L310 372z"/>
<path style="fill:#82b9b2; stroke:none;" d="M467 372L468 373L467 372M665 372L666 373L665 372z"/>
<path style="fill:#b5d7ed; stroke:none;" d="M309 373L310 374L309 373M466 373L467 374L466 373M666 373L667 374L666 373M308 374L309 375L308 374z"/>
<path style="fill:#82b9b2; stroke:none;" d="M466 374L467 375L466 374M666 374L667 375L666 374z"/>
<path style="fill:#b5d7ed; stroke:none;" d="M307 375L308 376L307 375M465 375L466 376L465 375M667 375L668 376L667 375M306 376L307 377L306 376M305 377L306 378L305 377z"/>
<path style="fill:#82b9b2; stroke:none;" d="M464 377L465 378L464 377M668 377L669 378L668 377z"/>
<path style="fill:#b5d7ed; stroke:none;" d="M282.333 378.667L282.667 379.333L282.333 378.667M304 378L305 379L304 378M463 378L464 379L463 378M669 378L670 379L669 378M303 379L304 380L303 379z"/>
<path style="fill:#82b9b2; stroke:none;" d="M463 379L464 380L463 379z"/>
<path style="fill:#b5d7ed; stroke:none;" d="M302 380L303 381L302 380M462 380L463 381L462 380M670 380L671 381L670 380M283 381L284 382L283 381M301 381L302 382L301 381z"/>
<path style="fill:#82b9b2; stroke:none;" d="M462 381L463 382L462 381M670 381L671 382L670 381z"/>
<path style="fill:#b5d7ed; stroke:none;" d="M284 382L285 383L284 382M461 382L462 383L461 382z"/>
<path style="fill:#82b9b2; stroke:none;" d="M521.667 382.333L522.333 382.667L521.667 382.333z"/>
<path style="fill:#b5d7ed; stroke:none;" d="M523.667 382.333L524.333 382.667L523.667 382.333z"/>
<path style="fill:#82b9b2; stroke:none;" d="M525.667 382.333L526.333 382.667L525.667 382.333M606.667 382.333L607.333 382.667L606.667 382.333z"/>
<path style="fill:#b5d7ed; stroke:none;" d="M608 382L608 383L611 383L608 382z"/>
<path style="fill:#82b9b2; stroke:none;" d="M611 382L612 383L611 382z"/>
<path style="fill:#b5d7ed; stroke:none;" d="M671 382L672 383L671 382M285 383L286 384L285 383M299 383L300 384L299 383z"/>
<path style="fill:#82b9b2; stroke:none;" d="M461 383L462 384L461 383z"/>
<path style="fill:#b5d7ed; stroke:none;" d="M519 383L520 384L519 383z"/>
<path style="fill:#f9fbfb; stroke:none;" d="M552 435L552 436C539.771 444.614 528.05 457.808 518.109 469C514.32 473.266 512.001 479.986 516.318 484.852C520.521 489.588 527.569 488.395 532 484.772C543.658 475.238 557.339 462.295 566 450L567 450C575.661 462.295 589.343 475.238 601 484.772C605.154 488.169 612.192 489.663 616.427 485.427C620.663 481.192 619.169 474.154 615.772 470C606.239 458.342 593.295 444.661 581 436C592.42 424.58 608.767 412.742 617.258 399C622.5 390.517 614.582 380.098 605 383.742C594.999 387.546 585.474 401.526 578 409C575.273 411.727 571.079 417.833 567 418.369C562.943 418.902 558.506 412.506 556 410C548.474 402.474 537.498 386.251 527 383.434C517.603 380.914 510.739 390.904 515.742 399C523.391 411.378 540.142 426.647 552 435z"/>
<path style="fill:#b5d7ed; stroke:none;" d="M528 383L529 384L528 383M604 383L605 384L604 383M613 383L614 384L613 383z"/>
<path style="fill:#82b9b2; stroke:none;" d="M671 383L672 384L671 383z"/>
<path style="fill:#b5d7ed; stroke:none;" d="M286 384L287 385L286 384M298 384L299 385L298 384M460 384L461 385L460 384z"/>
<path style="fill:#82b9b2; stroke:none;" d="M517 384L518 385L517 384M530 384L531 385L530 384M602 384L603 385L602 384M615 384L616 385L615 384z"/>
<path style="fill:#b5d7ed; stroke:none;" d="M672 384L673 385L672 384M288 385L289 386L288 385M296 385L297 386L296 385z"/>
<path style="fill:#82b9b2; stroke:none;" d="M460 385L461 386L460 385z"/>
<path style="fill:#b5d7ed; stroke:none;" d="M516 385L517 386L516 385M531 385L532 386L531 385M601 385L602 386L601 385M616 385L617 386L616 385z"/>
<path style="fill:#82b9b2; stroke:none;" d="M672 385L673 386L672 385z"/>
<path style="fill:#b5d7ed; stroke:none;" d="M292.667 386.333L293.333 386.667L292.667 386.333M459 386L460 387L459 386z"/>
<path style="fill:#82b9b2; stroke:none;" d="M515 386L516 387L515 386z"/>
<path style="fill:#b5d7ed; stroke:none;" d="M532 386L533 387L532 386M600 386L601 387L600 386z"/>
<path style="fill:#82b9b2; stroke:none;" d="M617 386L618 387L617 386z"/>
<path style="fill:#b5d7ed; stroke:none;" d="M673 386L674 387L673 386z"/>
<path style="fill:#82b9b2; stroke:none;" d="M459 387L460 388L459 387z"/>
<path style="fill:#b5d7ed; stroke:none;" d="M533 387L534 388L533 387M599 387L600 388L599 387z"/>
<path style="fill:#82b9b2; stroke:none;" d="M673 387L674 388L673 387z"/>
<path style="fill:#b5d7ed; stroke:none;" d="M514 388L515 389L514 388M534 388L535 389L534 388M598 388L599 389L598 388M618 388L619 389L618 388M674 388L675 389L674 388z"/>
<path style="fill:#82b9b2; stroke:none;" d="M458 389L459 390L458 389z"/>
<path style="fill:#b5d7ed; stroke:none;" d="M535 389L536 390L535 389M597 389L598 390L597 389z"/>
<path style="fill:#82b9b2; stroke:none;" d="M674 389L675 390L674 389M513.333 390.667L513.667 391.333L513.333 390.667z"/>
<path style="fill:#b5d7ed; stroke:none;" d="M536 390L537 391L536 390M596 390L597 391L596 390z"/>
<path style="fill:#82b9b2; stroke:none;" d="M619.333 390.667L619.667 391.333L619.333 390.667z"/>
<path style="fill:#b5d7ed; stroke:none;" d="M457 391L458 392L457 391M537 391L538 392L537 391M595 391L596 392L595 391M675 391L676 392L675 391z"/>
<path style="fill:#82b9b2; stroke:none;" d="M457 392L458 393L457 392z"/>
<path style="fill:#b5d7ed; stroke:none;" d="M513.333 392.667L513.667 393.333L513.333 392.667M538 392L539 393L538 392M594 392L595 393L594 392M619.333 392.667L619.667 393.333L619.333 392.667z"/>
<path style="fill:#82b9b2; stroke:none;" d="M675 392L676 393L675 392z"/>
<path style="fill:#b5d7ed; stroke:none;" d="M539 393L540 394L539 393M593 393L594 394L593 393M456 394L457 395L456 394z"/>
<path style="fill:#82b9b2; stroke:none;" d="M513.333 394.667L513.667 395.333L513.333 394.667z"/>
<path style="fill:#b5d7ed; stroke:none;" d="M540 394L541 395L540 394M592 394L593 395L592 394z"/>
<path style="fill:#82b9b2; stroke:none;" d="M619.333 394.667L619.667 395.333L619.333 394.667M676 394L677 395L676 394z"/>
<path style="fill:#b5d7ed; stroke:none;" d="M541 395L542 396L541 395M591 395L592 396L591 395M455 396L456 397L455 396M542 396L543 397L542 396M590 396L591 397L590 396M677 396L678 397L677 396z"/>
<path style="fill:#82b9b2; stroke:none;" d="M455 397L456 398L455 397M514 397L515 398L514 397z"/>
<path style="fill:#b5d7ed; stroke:none;" d="M543 397L544 398L543 397M589 397L590 398L589 397M618 397L619 398L618 397z"/>
<path style="fill:#82b9b2; stroke:none;" d="M677 397L678 398L677 397z"/>
<path style="fill:#b5d7ed; stroke:none;" d="M544 398L545 399L544 398M588 398L589 399L588 398M454 399L455 400L454 399z"/>
<path style="fill:#82b9b2; stroke:none;" d="M515 399L516 400L515 399z"/>
<path style="fill:#b5d7ed; stroke:none;" d="M545 399L546 400L545 399M587 399L588 400L587 399z"/>
<path style="fill:#82b9b2; stroke:none;" d="M617 399L618 400L617 399z"/>
<path style="fill:#b5d7ed; stroke:none;" d="M678 399L679 400L678 399z"/>
<path style="fill:#82b9b2; stroke:none;" d="M454 400L455 401L454 400M516 400L517 401L516 400z"/>
<path style="fill:#b5d7ed; stroke:none;" d="M546 400L547 401L546 400M586 400L587 401L586 400z"/>
<path style="fill:#82b9b2; stroke:none;" d="M616 400L617 401L616 400M678 400L679 401L678 400M517 401L518 402L517 401z"/>
<path style="fill:#b5d7ed; stroke:none;" d="M547 401L548 402L547 401M585 401L586 402L585 401z"/>
<path style="fill:#82b9b2; stroke:none;" d="M615 401L616 402L615 401z"/>
<path style="fill:#b5d7ed; stroke:none;" d="M453.333 402.667L453.667 403.333L453.333 402.667z"/>
<path style="fill:#82b9b2; stroke:none;" d="M518 402L519 403L518 402z"/>
<path style="fill:#b5d7ed; stroke:none;" d="M548 402L549 403L548 402M584 402L585 403L584 402z"/>
<path style="fill:#82b9b2; stroke:none;" d="M614 402L615 403L614 402z"/>
<path style="fill:#b5d7ed; stroke:none;" d="M679 402L680 403L679 402M390 403L390 404L401 404L390 403z"/>
<path style="fill:#82b9b2; stroke:none;" d="M519 403L520 404L519 403z"/>
<path style="fill:#b5d7ed; stroke:none;" d="M549 403L550 404L549 403M583 403L584 404L583 403z"/>
<path style="fill:#82b9b2; stroke:none;" d="M613 403L614 404L613 403M679.333 403.667L679.667 404.333L679.333 403.667z"/>
<path style="fill:#b5d7ed; stroke:none;" d="M384.667 404.333L385.333 404.667L384.667 404.333z"/>
<path style="fill:#78b5f1; stroke:none;" d="M386 404.465C331.393 414.293 328.721 494.15 382 508.244C390.293 510.438 398.627 510.339 407 508.738C414.214 507.359 421.154 504.183 427 499.761C470.772 466.649 440.909 394.582 386 404.465z"/>
<path style="fill:#b5d7ed; stroke:none;" d="M405.667 404.333L406.333 404.667L405.667 404.333z"/>
<path style="fill:#82b9b2; stroke:none;" d="M453 404L454 405L453 404M520 404L521 405L520 404z"/>
<path style="fill:#b5d7ed; stroke:none;" d="M550 404L551 405L550 404M582 404L583 405L582 404z"/>
<path style="fill:#82b9b2; stroke:none;" d="M612 404L613 405L612 404z"/>
<path style="fill:#b5d7ed; stroke:none;" d="M380.667 405.333L381.333 405.667L380.667 405.333M409.667 405.333L410.333 405.667L409.667 405.333z"/>
<path style="fill:#82b9b2; stroke:none;" d="M521 405L522 406L521 405z"/>
<path style="fill:#b5d7ed; stroke:none;" d="M551 405L552 406L551 405M581 405L582 406L581 405z"/>
<path style="fill:#82b9b2; stroke:none;" d="M611 405L612 406L611 405z"/>
<path style="fill:#b5d7ed; stroke:none;" d="M377.667 406.333L378.333 406.667L377.667 406.333M413 406L414 407L413 406M452.333 406.667L452.667 407.333L452.333 406.667z"/>
<path style="fill:#82b9b2; stroke:none;" d="M522 406L523 407L522 406z"/>
<path style="fill:#b5d7ed; stroke:none;" d="M552 406L553 407L552 406M580 406L581 407L580 406z"/>
<path style="fill:#82b9b2; stroke:none;" d="M610 406L611 407L610 406z"/>
<path style="fill:#b5d7ed; stroke:none;" d="M680 406L681 407L680 406M375 407L376 408L375 407M415.667 407.333L416.333 407.667L415.667 407.333z"/>
<path style="fill:#82b9b2; stroke:none;" d="M523 407L524 408L523 407z"/>
<path style="fill:#b5d7ed; stroke:none;" d="M553 407L554 408L553 407M579 407L580 408L579 407z"/>
<path style="fill:#82b9b2; stroke:none;" d="M609 407L610 408L609 407M680.333 407.667L680.667 408.333L680.333 407.667z"/>
<path style="fill:#b5d7ed; stroke:none;" d="M372.667 408.333L373.333 408.667L372.667 408.333M418 408L419 409L418 408z"/>
<path style="fill:#82b9b2; stroke:none;" d="M452 408L453 409L452 408M524 408L525 409L524 408z"/>
<path style="fill:#b5d7ed; stroke:none;" d="M554 408L555 409L554 408M578 408L579 409L578 408z"/>
<path style="fill:#82b9b2; stroke:none;" d="M608 408L609 409L608 408z"/>
<path style="fill:#b5d7ed; stroke:none;" d="M370 409L371 410L370 409M420 409L421 410L420 409z"/>
<path style="fill:#82b9b2; stroke:none;" d="M525 409L526 410L525 409z"/>
<path style="fill:#b5d7ed; stroke:none;" d="M555 409L556 410L555 409M577 409L578 410L577 409z"/>
<path style="fill:#82b9b2; stroke:none;" d="M607 409L608 410L607 409z"/>
<path style="fill:#b5d7ed; stroke:none;" d="M369 410L370 411L369 410M422 410L423 411L422 410M451 410L452 411L451 410z"/>
<path style="fill:#82b9b2; stroke:none;" d="M526 410L527 411L526 410z"/>
<path style="fill:#b5d7ed; stroke:none;" d="M556 410L557 411L556 410M576 410L577 411L576 410z"/>
<path style="fill:#82b9b2; stroke:none;" d="M606 410L607 411L606 410z"/>
<path style="fill:#b5d7ed; stroke:none;" d="M681 410L682 411L681 410M367 411L368 412L367 411M423 411L424 412L423 411z"/>
<path style="fill:#82b9b2; stroke:none;" d="M451.333 411.667L451.667 412.333L451.333 411.667M527 411L528 412L527 411z"/>
<path style="fill:#b5d7ed; stroke:none;" d="M557 411L558 412L557 411M575 411L576 412L575 411z"/>
<path style="fill:#82b9b2; stroke:none;" d="M605 411L606 412L605 411M681.333 411.667L681.667 412.333L681.333 411.667z"/>
<path style="fill:#b5d7ed; stroke:none;" d="M425 412L426 413L425 412z"/>
<path style="fill:#82b9b2; stroke:none;" d="M528 412L529 413L528 412z"/>
<path style="fill:#b5d7ed; stroke:none;" d="M558 412L559 413L558 412M574 412L575 413L574 412z"/>
<path style="fill:#82b9b2; stroke:none;" d="M604 412L605 413L604 412z"/>
<path style="fill:#b5d7ed; stroke:none;" d="M364 413L365 414L364 413M426 413L427 414L426 413z"/>
<path style="fill:#82b9b2; stroke:none;" d="M529 413L530 414L529 413z"/>
<path style="fill:#b5d7ed; stroke:none;" d="M559 413L560 414L559 413M573 413L574 414L573 413z"/>
<path style="fill:#82b9b2; stroke:none;" d="M603 413L604 414L603 413z"/>
<path style="fill:#b5d7ed; stroke:none;" d="M363 414L364 415L363 414z"/>
<path style="fill:#82b9b2; stroke:none;" d="M530 414L531 415L530 414z"/>
<path style="fill:#b5d7ed; stroke:none;" d="M560 414L561 415L560 414M572 414L573 415L572 414z"/>
<path style="fill:#82b9b2; stroke:none;" d="M602 414L603 415L602 414z"/>
<path style="fill:#b5d7ed; stroke:none;" d="M362 415L363 416L362 415z"/>
<path style="fill:#82b9b2; stroke:none;" d="M531 415L532 416L531 415z"/>
<path style="fill:#b5d7ed; stroke:none;" d="M561 415L562 416L561 415M571 415L572 416L571 415z"/>
<path style="fill:#82b9b2; stroke:none;" d="M601 415L602 416L601 415z"/>
<path style="fill:#b5d7ed; stroke:none;" d="M682.333 415.667L682.667 416.333L682.333 415.667M430 416L431 417L430 416M450.333 416.667L450.667 417.333L450.333 416.667z"/>
<path style="fill:#82b9b2; stroke:none;" d="M532 416L533 417L532 416z"/>
<path style="fill:#b5d7ed; stroke:none;" d="M562 416L563 417L562 416M570 416L571 417L570 416z"/>
<path style="fill:#82b9b2; stroke:none;" d="M600 416L601 417L600 416z"/>
<path style="fill:#b5d7ed; stroke:none;" d="M359 417L360 418L359 417M431 417L432 418L431 417z"/>
<path style="fill:#82b9b2; stroke:none;" d="M533 417L534 418L533 417z"/>
<path style="fill:#b5d7ed; stroke:none;" d="M563 417L564 418L563 417M569 417L570 418L569 417z"/>
<path style="fill:#82b9b2; stroke:none;" d="M599 417L600 418L599 417M682 417L682 420L683 420L682 417z"/>
<path style="fill:#b5d7ed; stroke:none;" d="M358 418L359 419L358 418M432 418L433 419L432 418z"/>
<path style="fill:#82b9b2; stroke:none;" d="M450.333 418.667L450.667 419.333L450.333 418.667M534 418L535 419L534 418z"/>
<path style="fill:#b5d7ed; stroke:none;" d="M564 418L565 419L564 418M568 418L569 419L568 418z"/>
<path style="fill:#82b9b2; stroke:none;" d="M598 418L599 419L598 418z"/>
<path style="fill:#b5d7ed; stroke:none;" d="M357 419L358 420L357 419z"/>
<path style="fill:#82b9b2; stroke:none;" d="M535 419L536 420L535 419z"/>
<path style="fill:#b5d7ed; stroke:none;" d="M565 419L566 420L565 419M567 419L568 420L567 419z"/>
<path style="fill:#82b9b2; stroke:none;" d="M597 419L598 420L597 419z"/>
<path style="fill:#b5d7ed; stroke:none;" d="M356 420L357 421L356 420M434 420L435 421L434 420z"/>
<path style="fill:#82b9b2; stroke:none;" d="M536 420L537 421L536 420M596 420L597 421L596 420z"/>
<path style="fill:#b5d7ed; stroke:none;" d="M435 421L436 422L435 421z"/>
<path style="fill:#82b9b2; stroke:none;" d="M537 421L538 422L537 421M595 421L596 422L595 421z"/>
<path style="fill:#b5d7ed; stroke:none;" d="M436 422L437 423L436 422M449 422L449 426L450 426L449 422z"/>
<path style="fill:#82b9b2; stroke:none;" d="M538 422L539 423L538 422M594 422L595 423L594 422z"/>
<path style="fill:#b5d7ed; stroke:none;" d="M683 422L683 425L684 425L683 422z"/>
<path style="fill:#82b9b2; stroke:none;" d="M539 423L540 424L539 423M593 423L594 424L593 423z"/>
<path style="fill:#b5d7ed; stroke:none;" d="M353 424L354 425L353 424z"/>
<path style="fill:#82b9b2; stroke:none;" d="M540 424L541 425L540 424M592 424L593 425L592 424z"/>
<path style="fill:#b5d7ed; stroke:none;" d="M352 425L353 426L352 425M438 425L439 426L438 425z"/>
<path style="fill:#82b9b2; stroke:none;" d="M541 425L542 426L541 425M591 425L592 426L591 425M683 425L683 432L684 432L683 425z"/>
<path style="fill:#b5d7ed; stroke:none;" d="M351 426L352 427L351 426M439 426L440 427L439 426z"/>
<path style="fill:#82b9b2; stroke:none;" d="M449 426L449 433L450 433L449 426M542 426L543 427L542 426M590 426L591 427L590 426z"/>
<path style="fill:#b5d7ed; stroke:none;" d="M440 427L441 428L440 427z"/>
<path style="fill:#82b9b2; stroke:none;" d="M543 427L544 428L543 427M589 427L590 428L589 427z"/>
<path style="fill:#b5d7ed; stroke:none;" d="M350 428L351 429L350 428z"/>
<path style="fill:#82b9b2; stroke:none;" d="M544 428L545 429L544 428M588 428L589 429L588 428z"/>
<path style="fill:#b5d7ed; stroke:none;" d="M441 429L442 430L441 429z"/>
<path style="fill:#82b9b2; stroke:none;" d="M545 429L546 430L545 429M587 429L588 430L587 429M546 430L547 431L546 430M586 430L587 431L586 430z"/>
<path style="fill:#b5d7ed; stroke:none;" d="M348 431L349 432L348 431M442 431L443 432L442 431z"/>
<path style="fill:#82b9b2; stroke:none;" d="M547 431L548 432L547 431M585 431L586 432L585 431M548 432L549 433L548 432M584 432L585 433L584 432z"/>
<path style="fill:#b5d7ed; stroke:none;" d="M347 433L348 434L347 433M443 433L444 434L443 433z"/>
<path style="fill:#82b9b2; stroke:none;" d="M549 433L550 434L549 433M583 433L584 434L583 433M550 434L551 435L550 434M582 434L583 435L582 434z"/>
<path style="fill:#b5d7ed; stroke:none;" d="M346.333 435.667L346.667 436.333L346.333 435.667M444 435L445 436L444 435M551 435L552 436L551 435M581 435L582 436L581 435M550 436L551 437L550 436M582 436L583 437L582 436M445 437L446 438L445 437M549 437L550 438L549 437M583 437L584 438L583 437M345 438L346 439L345 438z"/>
<path style="fill:#82b9b2; stroke:none;" d="M449 438L449 445L450 445L449 438z"/>
<path style="fill:#b5d7ed; stroke:none;" d="M548 438L549 439L548 438M584 438L585 439L584 438M547 439L548 440L547 439M585 439L586 440L585 439z"/>
<path style="fill:#82b9b2; stroke:none;" d="M683 439L683 446L684 446L683 439z"/>
<path style="fill:#b5d7ed; stroke:none;" d="M446 440L447 441L446 440M546 440L547 441L546 440M586 440L587 441L586 440M344.333 441.667L344.667 442.333L344.333 441.667M545 441L546 442L545 441M587 441L588 442L587 441M544 442L545 443L544 442M588 442L589 443L588 442M447.333 443.667L447.667 444.333L447.333 443.667M543 443L544 444L543 443M589 443L590 444L589 443M343 444L343 447L344 447L343 444M542 444L543 445L542 444M590 444L591 445L590 444M449 445L448 451L449 451L449 445M541 445L542 446L541 445M591 445L592 446L591 445M540 446L541 447L540 446M592 446L593 447L592 446M683 446L683 449L684 449L683 446M539 447L540 448L539 447M593 447L594 448L593 447M538 448L539 449L538 448M594 448L595 449L594 448M537 449L538 450L537 449M595 449L596 450L595 449M342 450L342 464L343 464L342 450M536 450L537 451L536 450M566 450L567 451L566 450M596 450L597 451L596 450z"/>
<path style="fill:#82b9b2; stroke:none;" d="M450.333 451.667L450.667 452.333L450.333 451.667z"/>
<path style="fill:#b5d7ed; stroke:none;" d="M535 451L536 452L535 451z"/>
<path style="fill:#82b9b2; stroke:none;" d="M565 451L566 452L565 451M567 451L568 452L567 451z"/>
<path style="fill:#b5d7ed; stroke:none;" d="M597 451L598 452L597 451z"/>
<path style="fill:#82b9b2; stroke:none;" d="M682.333 451.667L682.667 452.333L682.333 451.667z"/>
<path style="fill:#b5d7ed; stroke:none;" d="M534 452L535 453L534 452z"/>
<path style="fill:#82b9b2; stroke:none;" d="M564 452L565 453L564 452M568 452L569 453L568 452z"/>
<path style="fill:#b5d7ed; stroke:none;" d="M598 452L599 453L598 452M450.333 453.667L450.667 454.333L450.333 453.667M533 453L534 454L533 453z"/>
<path style="fill:#82b9b2; stroke:none;" d="M563 453L564 454L563 453M569 453L570 454L569 453z"/>
<path style="fill:#b5d7ed; stroke:none;" d="M599 453L600 454L599 453M682 453L682 456L683 456L682 453M532 454L533 455L532 454z"/>
<path style="fill:#82b9b2; stroke:none;" d="M562 454L563 455L562 454M570 454L571 455L570 454z"/>
<path style="fill:#b5d7ed; stroke:none;" d="M600 454L601 455L600 454M531 455L532 456L531 455z"/>
<path style="fill:#82b9b2; stroke:none;" d="M561 455L562 456L561 455M571 455L572 456L571 455z"/>
<path style="fill:#b5d7ed; stroke:none;" d="M601 455L602 456L601 455M530 456L531 457L530 456z"/>
<path style="fill:#82b9b2; stroke:none;" d="M560 456L561 457L560 456M572 456L573 457L572 456z"/>
<path style="fill:#b5d7ed; stroke:none;" d="M602 456L603 457L602 456z"/>
<path style="fill:#82b9b2; stroke:none;" d="M451.333 457.667L451.667 458.333L451.333 457.667z"/>
<path style="fill:#b5d7ed; stroke:none;" d="M529 457L530 458L529 457z"/>
<path style="fill:#82b9b2; stroke:none;" d="M559 457L560 458L559 457M573 457L574 458L573 457z"/>
<path style="fill:#b5d7ed; stroke:none;" d="M603 457L604 458L603 457M528 458L529 459L528 458z"/>
<path style="fill:#82b9b2; stroke:none;" d="M558 458L559 459L558 458M574 458L575 459L574 458z"/>
<path style="fill:#b5d7ed; stroke:none;" d="M604 458L605 459L604 458z"/>
<path style="fill:#82b9b2; stroke:none;" d="M681.333 458.667L681.667 459.333L681.333 458.667z"/>
<path style="fill:#b5d7ed; stroke:none;" d="M451.333 459.667L451.667 460.333L451.333 459.667M527 459L528 460L527 459z"/>
<path style="fill:#82b9b2; stroke:none;" d="M557 459L558 460L557 459M575 459L576 460L575 459z"/>
<path style="fill:#b5d7ed; stroke:none;" d="M605 459L606 460L605 459M526 460L527 461L526 460z"/>
<path style="fill:#82b9b2; stroke:none;" d="M556 460L557 461L556 460M576 460L577 461L576 460z"/>
<path style="fill:#b5d7ed; stroke:none;" d="M606 460L607 461L606 460M681 460L682 461L681 460M525 461L526 462L525 461z"/>
<path style="fill:#82b9b2; stroke:none;" d="M555 461L556 462L555 461M577 461L578 462L577 461z"/>
<path style="fill:#b5d7ed; stroke:none;" d="M607 461L608 462L607 461M448 462L448 466L449 466L448 462z"/>
<path style="fill:#82b9b2; stroke:none;" d="M452 462L453 463L452 462z"/>
<path style="fill:#b5d7ed; stroke:none;" d="M524 462L525 463L524 462z"/>
<path style="fill:#82b9b2; stroke:none;" d="M554 462L555 463L554 462M578 462L579 463L578 462z"/>
<path style="fill:#b5d7ed; stroke:none;" d="M608 462L609 463L608 462z"/>
<path style="fill:#82b9b2; stroke:none;" d="M680.333 462.667L680.667 463.333L680.333 462.667z"/>
<path style="fill:#b5d7ed; stroke:none;" d="M452.333 463.667L452.667 464.333L452.333 463.667M523 463L524 464L523 463z"/>
<path style="fill:#82b9b2; stroke:none;" d="M553 463L554 464L553 463M579 463L580 464L579 463z"/>
<path style="fill:#b5d7ed; stroke:none;" d="M609 463L610 464L609 463M522 464L523 465L522 464z"/>
<path style="fill:#82b9b2; stroke:none;" d="M552 464L553 465L552 464M580 464L581 465L580 464z"/>
<path style="fill:#b5d7ed; stroke:none;" d="M610 464L611 465L610 464M680 464L681 465L680 464M521 465L522 466L521 465z"/>
<path style="fill:#82b9b2; stroke:none;" d="M551 465L552 466L551 465M581 465L582 466L581 465z"/>
<path style="fill:#b5d7ed; stroke:none;" d="M611 465L612 466L611 465z"/>
<path style="fill:#82b9b2; stroke:none;" d="M453 466L454 467L453 466z"/>
<path style="fill:#b5d7ed; stroke:none;" d="M520 466L521 467L520 466z"/>
<path style="fill:#82b9b2; stroke:none;" d="M550 466L551 467L550 466M582 466L583 467L582 466z"/>
<path style="fill:#b5d7ed; stroke:none;" d="M612 466L613 467L612 466z"/>
<path style="fill:#82b9b2; stroke:none;" d="M679 466L680 467L679 466z"/>
<path style="fill:#b5d7ed; stroke:none;" d="M343.333 467.667L343.667 468.333L343.333 467.667M453 467L454 468L453 467M519 467L520 468L519 467z"/>
<path style="fill:#82b9b2; stroke:none;" d="M549 467L550 468L549 467M583 467L584 468L583 467z"/>
<path style="fill:#b5d7ed; stroke:none;" d="M613 467L614 468L613 467M679.333 467.667L679.667 468.333L679.333 467.667M447.333 468.667L447.667 469.333L447.333 468.667M518 468L519 469L518 468z"/>
<path style="fill:#82b9b2; stroke:none;" d="M548 468L549 469L548 468M584 468L585 469L584 468z"/>
<path style="fill:#b5d7ed; stroke:none;" d="M614 468L615 469L614 468M517 469L518 470L517 469z"/>
<path style="fill:#82b9b2; stroke:none;" d="M547 469L548 470L547 469M585 469L586 470L585 469z"/>
<path style="fill:#b5d7ed; stroke:none;" d="M615 469L616 470L615 469z"/>
<path style="fill:#82b9b2; stroke:none;" d="M454 470L455 471L454 470z"/>
<path style="fill:#b5d7ed; stroke:none;" d="M516 470L517 471L516 470z"/>
<path style="fill:#82b9b2; stroke:none;" d="M546 470L547 471L546 470M586 470L587 471L586 470z"/>
<path style="fill:#b5d7ed; stroke:none;" d="M616 470L617 471L616 470z"/>
<path style="fill:#82b9b2; stroke:none;" d="M678 470L679 471L678 470z"/>
<path style="fill:#b5d7ed; stroke:none;" d="M344.333 471.667L344.667 472.333L344.333 471.667M454 471L455 472L454 471z"/>
<path style="fill:#82b9b2; stroke:none;" d="M515 471L516 472L515 471M545 471L546 472L545 471M587 471L588 472L587 471M617 471L618 472L617 471z"/>
<path style="fill:#b5d7ed; stroke:none;" d="M678 471L679 472L678 471M446.333 472.667L446.667 473.333L446.333 472.667z"/>
<path style="fill:#82b9b2; stroke:none;" d="M544 472L545 473L544 472M588 472L589 473L588 472M455 473L456 474L455 473z"/>
<path style="fill:#b5d7ed; stroke:none;" d="M514 473L515 474L514 473z"/>
<path style="fill:#82b9b2; stroke:none;" d="M543 473L544 474L543 473M589 473L590 474L589 473z"/>
<path style="fill:#b5d7ed; stroke:none;" d="M618 473L619 474L618 473z"/>
<path style="fill:#82b9b2; stroke:none;" d="M677 473L678 474L677 473z"/>
<path style="fill:#b5d7ed; stroke:none;" d="M345.333 474.667L345.667 475.333L345.333 474.667z"/>
<path style="fill:#82b9b2; stroke:none;" d="M542 474L543 475L542 474M590 474L591 475L590 474z"/>
<path style="fill:#b5d7ed; stroke:none;" d="M677 474L678 475L677 474M445 475L446 476L445 475z"/>
<path style="fill:#82b9b2; stroke:none;" d="M456 475L457 476L456 475M513 475L514 476L513 475M541 475L542 476L541 475M591 475L592 476L591 475M619 475L620 476L619 475z"/>
<path style="fill:#b5d7ed; stroke:none;" d="M456 476L457 477L456 476M513 476L513 480L514 480L513 476z"/>
<path style="fill:#82b9b2; stroke:none;" d="M540 476L541 477L540 476M592 476L593 477L592 476z"/>
<path style="fill:#b5d7ed; stroke:none;" d="M619 476L619 480L620 480L619 476M676 476L677 477L676 476M346 477L347 478L346 477z"/>
<path style="fill:#82b9b2; stroke:none;" d="M539 477L540 478L539 477M593 477L594 478L593 477z"/>
<path style="fill:#b5d7ed; stroke:none;" d="M444 478L445 479L444 478z"/>
<path style="fill:#82b9b2; stroke:none;" d="M457 478L458 479L457 478M538 478L539 479L538 478M594 478L595 479L594 478M675 478L676 479L675 478z"/>
<path style="fill:#b5d7ed; stroke:none;" d="M347 479L348 480L347 479M457 479L458 480L457 479z"/>
<path style="fill:#82b9b2; stroke:none;" d="M537 479L538 480L537 479M595 479L596 480L595 479z"/>
<path style="fill:#b5d7ed; stroke:none;" d="M675 479L676 480L675 479M443 480L444 481L443 480z"/>
<path style="fill:#82b9b2; stroke:none;" d="M513.333 480.667L513.667 481.333L513.333 480.667M536 480L537 481L536 480M596 480L597 481L596 480M619.333 480.667L619.667 481.333L619.333 480.667z"/>
<path style="fill:#b5d7ed; stroke:none;" d="M348 481L349 482L348 481z"/>
<path style="fill:#82b9b2; stroke:none;" d="M458 481L459 482L458 481M535 481L536 482L535 481M597 481L598 482L597 481M674 481L675 482L674 481z"/>
<path style="fill:#b5d7ed; stroke:none;" d="M442 482L443 483L442 482z"/>
<path style="fill:#82b9b2; stroke:none;" d="M534 482L535 483L534 482M598 482L599 483L598 482z"/>
<path style="fill:#b5d7ed; stroke:none;" d="M349 483L350 484L349 483z"/>
<path style="fill:#82b9b2; stroke:none;" d="M459 483L460 484L459 483M514 483L515 484L514 483M533 483L534 484L533 483M599 483L600 484L599 483M618 483L619 484L618 483M673 483L674 484L673 483z"/>
<path style="fill:#b5d7ed; stroke:none;" d="M515 484L516 485L515 484z"/>
<path style="fill:#82b9b2; stroke:none;" d="M532 484L533 485L532 484M600 484L601 485L600 484z"/>
<path style="fill:#b5d7ed; stroke:none;" d="M617 484L618 485L617 484M350 485L351 486L350 485M440 485L441 486L440 485z"/>
<path style="fill:#82b9b2; stroke:none;" d="M460 485L461 486L460 485z"/>
<path style="fill:#b5d7ed; stroke:none;" d="M516 485L517 486L516 485z"/>
<path style="fill:#82b9b2; stroke:none;" d="M531 485L532 486L531 485M601 485L602 486L601 485M672 485L673 486L672 485z"/>
<path style="fill:#b5d7ed; stroke:none;" d="M351 486L352 487L351 486M517 486L518 487L517 486z"/>
<path style="fill:#82b9b2; stroke:none;" d="M530 486L531 487L530 486M602 486L603 487L602 486z"/>
<path style="fill:#b5d7ed; stroke:none;" d="M615 486L616 487L615 486M672 486L673 487L672 486M439 487L440 488L439 487z"/>
<path style="fill:#82b9b2; stroke:none;" d="M461 487L462 488L461 487M518 487L519 488L518 487z"/>
<path style="fill:#b5d7ed; stroke:none;" d="M528 487L529 488L528 487M604 487L605 488L604 487z"/>
<path style="fill:#82b9b2; stroke:none;" d="M614 487L615 488L614 487M671 487L672 488L671 487z"/>
<path style="fill:#b5d7ed; stroke:none;" d="M438 488L439 489L438 488M461 488L462 489L461 488z"/>
<path style="fill:#82b9b2; stroke:none;" d="M521 488L522 489L521 488z"/>
<path style="fill:#b5d7ed; stroke:none;" d="M522 488L522 489L525 489L522 488z"/>
<path style="fill:#82b9b2; stroke:none;" d="M525.667 488.333L526.333 488.667L525.667 488.333M606.667 488.333L607.333 488.667L606.667 488.333z"/>
<path style="fill:#b5d7ed; stroke:none;" d="M608 488L608 489L611 489L608 488z"/>
<path style="fill:#82b9b2; stroke:none;" d="M611 488L612 489L611 488z"/>
<path style="fill:#b5d7ed; stroke:none;" d="M671 488L672 489L671 488M353 489L354 490L353 489M437 489L438 490L437 489z"/>
<path style="fill:#82b9b2; stroke:none;" d="M462 489L463 490L462 489M670 489L671 490L670 489z"/>
<path style="fill:#b5d7ed; stroke:none;" d="M354 490L355 491L354 490M436 490L437 491L436 490M462 490L463 491L462 490M670 490L671 491L670 490M355 491L356 492L355 491z"/>
<path style="fill:#82b9b2; stroke:none;" d="M463 491L464 492L463 491M669 491L670 492L669 491z"/>
<path style="fill:#b5d7ed; stroke:none;" d="M669 492L670 493L669 492M434 493L435 494L434 493z"/>
<path style="fill:#82b9b2; stroke:none;" d="M464 493L465 494L464 493M668 493L669 494L668 493z"/>
<path style="fill:#b5d7ed; stroke:none;" d="M433 494L434 495L433 494M432 495L433 496L432 495M465 495L466 496L465 495M667 495L668 496L667 495M360 496L361 497L360 496z"/>
<path style="fill:#82b9b2; stroke:none;" d="M466 496L467 497L466 496M666 496L667 497L666 496z"/>
<path style="fill:#b5d7ed; stroke:none;" d="M361 497L362 498L361 497M429 497L430 498L429 497M362 498L363 499L362 498M428 498L429 499L428 498M467 498L468 499L467 498z"/>
<path style="fill:#82b9b2; stroke:none;" d="M665 498L666 499L665 498z"/>
<path style="fill:#b5d7ed; stroke:none;" d="M427 499L428 500L427 499M426 500L427 501L426 500M468 500L469 501L468 500M664 500L665 501L664 500M366 501L367 502L366 501M424 501L425 502L424 501z"/>
<path style="fill:#82b9b2; stroke:none;" d="M469 501L470 502L469 501M663 501L664 502L663 501z"/>
<path style="fill:#b5d7ed; stroke:none;" d="M368 502L369 503L368 502M423 502L424 503L423 502z"/>
<path style="fill:#82b9b2; stroke:none;" d="M470 502L471 503L470 502z"/>
<path style="fill:#b5d7ed; stroke:none;" d="M369 503L370 504L369 503M421 503L422 504L421 503M662 503L663 504L662 503M371 504L372 505L371 504M419 504L420 505L419 504M471 504L472 505L471 504M661 504L662 505L661 504M373 505L374 506L373 505M417 505L418 506L417 505z"/>
<path style="fill:#82b9b2; stroke:none;" d="M472 505L473 506L472 505M660 505L661 506L660 505z"/>
<path style="fill:#b5d7ed; stroke:none;" d="M376 506L377 507L376 506M414.667 506.333L415.333 506.667L414.667 506.333M378.667 507.333L379.333 507.667L378.667 507.333M412 507L413 508L412 507M659 507L660 508L659 507M382 508L383 509L382 508M408.667 508.333L409.333 508.667L408.667 508.333M474 508L475 509L474 508M658 508L659 509L658 508M386 509L386 510L389 510L386 509M402 509L402 510L406 510L402 509z"/>
<path style="fill:#82b9b2; stroke:none;" d="M475 509L476 510L475 509M657 509L658 510L657 509M476 510L477 511L476 510M656 510L657 511L656 510z"/>
<path style="fill:#b5d7ed; stroke:none;" d="M654 513L655 514L654 513M479 514L480 515L479 514M653 514L654 515L653 514M480 515L481 516L480 515M652 515L653 516L652 515M481 516L482 517L481 516M651 516L652 517L651 516M482 517L483 518L482 517z"/>
<path style="fill:#82b9b2; stroke:none;" d="M650 517L651 518L650 517M483 518L484 519L483 518M649 518L650 519L649 518z"/>
<path style="fill:#b5d7ed; stroke:none;" d="M484 519L485 520L484 519z"/>
<path style="fill:#82b9b2; stroke:none;" d="M648 519L649 520L648 519z"/>
<path style="fill:#b5d7ed; stroke:none;" d="M485 520L486 521L485 520M647 520L648 521L647 520M486 521L487 522L486 521M646 521L647 522L646 521M487 522L488 523L487 522M645 522L646 523L645 522M644 523L645 524L644 523z"/>
<path style="fill:#82b9b2; stroke:none;" d="M491 525L492 526L491 525M641 525L642 526L641 525M492 526L493 527L492 526M640 526L641 527L640 526z"/>
<path style="fill:#b5d7ed; stroke:none;" d="M493 527L494 528L493 527M639 527L640 528L639 527z"/>
<path style="fill:#82b9b2; stroke:none;" d="M495 528L496 529L495 528z"/>
<path style="fill:#b5d7ed; stroke:none;" d="M638 528L639 529L638 528z"/>
<path style="fill:#82b9b2; stroke:none;" d="M496 529L497 530L496 529M636 529L637 530L636 529z"/>
<path style="fill:#b5d7ed; stroke:none;" d="M497 530L498 531L497 530M635 530L636 531L635 530z"/>
<path style="fill:#82b9b2; stroke:none;" d="M499 531L500 532L499 531M500 532L501 533L500 532M632 532L633 533L632 532z"/>
<path style="fill:#b5d7ed; stroke:none;" d="M501 533L502 534L501 533M631 533L632 534L631 533M503 534L504 535L503 534z"/>
<path style="fill:#82b9b2; stroke:none;" d="M629 534L630 535L629 534M505 535L506 536L505 535M627 535L628 536L627 535z"/>
<path style="fill:#b5d7ed; stroke:none;" d="M506 536L507 537L506 536M626 536L627 537L626 536z"/>
<path style="fill:#82b9b2; stroke:none;" d="M508 537L509 538L508 537M624 537L625 538L624 537M510 538L511 539L510 538M622 538L623 539L622 538z"/>
<path style="fill:#b5d7ed; stroke:none;" d="M623 538L624 539L623 538M511 539L512 540L511 539z"/>
<path style="fill:#82b9b2; stroke:none;" d="M512 539L513 540L512 539M620 539L621 540L620 539z"/>
<path style="fill:#b5d7ed; stroke:none;" d="M621 539L622 540L621 539M513 540L514 541L513 540z"/>
<path style="fill:#82b9b2; stroke:none;" d="M514 540L515 541L514 540M618 540L619 541L618 540z"/>
<path style="fill:#b5d7ed; stroke:none;" d="M619 540L620 541L619 540z"/>
<path style="fill:#82b9b2; stroke:none;" d="M516 541L517 542L516 541M616 541L617 542L616 541M518 542L519 543L518 542M614 542L615 543L614 542M520 543L521 544L520 543M612 543L613 544L612 543z"/>
<path style="fill:#b5d7ed; stroke:none;" d="M522 544L523 545L522 544z"/>
<path style="fill:#82b9b2; stroke:none;" d="M523 544L524 545L523 544M609 544L610 545L609 544z"/>
<path style="fill:#b5d7ed; stroke:none;" d="M610 544L611 545L610 544M525 545L526 546L525 545z"/>
<path style="fill:#82b9b2; stroke:none;" d="M526 545L527 546L526 545M606 545L607 546L606 545z"/>
<path style="fill:#b5d7ed; stroke:none;" d="M607 545L608 546L607 545z"/>
<path style="fill:#82b9b2; stroke:none;" d="M528 546L529 547L528 546M604 546L605 547L604 546z"/>
<path style="fill:#b5d7ed; stroke:none;" d="M530 547L531 548L530 547z"/>
<path style="fill:#82b9b2; stroke:none;" d="M531 547L532 548L531 547M601 547L602 548L601 547z"/>
<path style="fill:#b5d7ed; stroke:none;" d="M602 547L603 548L602 547M534 548L535 549L534 548z"/>
<path style="fill:#82b9b2; stroke:none;" d="M535 548L536 549L535 548M597 548L598 549L597 548z"/>
<path style="fill:#b5d7ed; stroke:none;" d="M598 548L599 549L598 548M538 549L539 550L538 549z"/>
<path style="fill:#82b9b2; stroke:none;" d="M539 549L540 550L539 549M593 549L594 550L593 549z"/>
<path style="fill:#b5d7ed; stroke:none;" d="M594 549L595 550L594 549M541.667 550.333L542.333 550.667L541.667 550.333z"/>
<path style="fill:#82b9b2; stroke:none;" d="M543.667 550.333L544.333 550.667L543.667 550.333M588.667 550.333L589.333 550.667L588.667 550.333z"/>
<path style="fill:#b5d7ed; stroke:none;" d="M590.667 550.333L591.333 550.667L590.667 550.333M547.667 551.333L548.333 551.667L547.667 551.333z"/>
<path style="fill:#82b9b2; stroke:none;" d="M549.667 551.333L550.333 551.667L549.667 551.333M582.667 551.333L583.333 551.667L582.667 551.333z"/>
<path style="fill:#b5d7ed; stroke:none;" d="M584.667 551.333L585.333 551.667L584.667 551.333M554 552L554 553L558 553L554 552z"/>
<path style="fill:#82b9b2; stroke:none;" d="M558 552L558 553L565 553L558 552M568 552L568 553L575 553L568 552z"/>
<path style="fill:#b5d7ed; stroke:none;" d="M575 552L575 553L579 553L575 552z"/>
</svg>
