<?xml version="1.0" standalone="no"?>
<!DOCTYPE svg PUBLIC "-//W3C//DTD SVG 20010904//EN"
 "http://www.w3.org/TR/2001/REC-SVG-20010904/DTD/svg10.dtd">
<svg version="1.0" xmlns="http://www.w3.org/2000/svg"
 width="1238.000000pt" height="870.000000pt" viewBox="0 0 1238.000000 870.000000"
 preserveAspectRatio="xMidYMid meet">

<g transform="translate(0.000000,870.000000) scale(0.100000,-0.100000)"
fill="#000000" stroke="none">
<path d="M5895 7724 c-67 -35 -105 -89 -105 -151 0 -42 17 -71 64 -114 l31
-27 -17 -64 c-46 -165 -90 -304 -101 -316 -10 -9 -97 -13 -352 -16 -556 -6
-575 -16 -583 -303 -3 -90 -8 -146 -16 -152 -6 -5 -40 -17 -76 -26 -78 -20
-116 -39 -130 -65 -5 -10 -26 -92 -44 -182 -19 -90 -43 -203 -54 -251 -11 -48
-18 -95 -15 -105 4 -14 171 -133 275 -195 22 -14 28 -26 33 -74 22 -204 30
-222 90 -197 38 15 91 19 99 6 9 -15 -155 -124 -283 -188 -410 -205 -641 -547
-735 -1086 -9 -49 -13 -101 -10 -116 6 -27 3 -30 -55 -51 -115 -42 -212 -157
-227 -269 -21 -158 124 -373 200 -297 16 17 36 77 36 110 0 37 31 139 47 157
39 43 99 15 159 -72 44 -65 80 -94 106 -86 66 21 65 22 71 -64 4 -44 11 -89
17 -100 15 -28 51 -34 104 -16 38 13 95 16 294 16 343 0 947 36 1007 61 27 10
-364 10 -535 0 -154 -10 -180 -3 -180 49 0 32 31 60 246 218 l112 82 181 0
c156 0 190 -3 238 -20 72 -25 107 -25 147 -1 29 18 50 20 218 19 l187 -1 53
-30 c93 -53 207 -189 208 -248 0 -33 27 -44 78 -30 26 7 48 14 51 16 2 2 -4
20 -13 40 -10 20 -24 91 -31 158 -14 120 -37 745 -28 760 2 4 11 7 19 7 11 0
14 -23 14 -129 0 -70 3 -150 7 -177 11 -83 21 -17 22 154 1 153 1 153 24 150
22 -3 22 -6 27 -183 6 -196 9 -189 19 40 l6 150 30 0 30 0 5 -247 c3 -135 8
-250 13 -254 4 -4 7 99 7 229 l0 236 51 25 c28 15 57 26 64 26 10 0 12 -50 8
-257 -3 -149 -2 -254 3 -250 5 5 11 119 14 254 4 220 7 247 23 257 12 8 22 8
35 0 19 -13 19 -4 2 -244 -6 -85 -13 -281 -16 -435 -3 -154 -7 -281 -9 -283
-2 -2 -43 1 -91 8 -47 6 -99 8 -114 5 -62 -14 -79 -80 -30 -116 26 -20 212
-51 303 -51 82 0 102 33 86 150 -5 43 -9 242 -7 452 4 637 6 569 -21 591 -18
15 -39 19 -102 19 -80 0 -82 1 -81 40 3 62 47 452 52 461 5 7 24 -1 56 -24 75
-53 153 -94 235 -124 108 -38 281 -44 399 -14 215 56 413 193 529 367 72 108
93 169 99 295 4 93 1 116 -22 200 -30 104 -91 231 -160 335 -26 37 -46 71 -46
76 0 9 -121 90 -172 114 -31 14 -38 23 -38 46 0 33 -1 33 -40 13 l-30 -16 0
53 c0 122 -60 250 -164 354 -78 77 -116 94 -207 94 -101 -1 -214 -42 -300
-111 -49 -39 -58 -37 -52 9 7 52 -17 97 -59 111 -29 9 -208 38 -338 55 -106
14 -360 36 -555 47 -149 8 -214 16 -225 25 -12 12 -12 37 2 205 l15 192 48 45
c26 25 51 56 56 69 14 37 11 101 -6 133 -29 56 -116 77 -180 44z m110 -91 c13
-12 16 -27 12 -57 -9 -67 -53 -81 -104 -33 -31 28 -29 50 8 81 35 30 61 33 84
9z m-112 -518 c-7 -73 -10 -80 -31 -83 -51 -7 -53 2 -18 90 51 130 49 127 53
98 2 -14 0 -61 -4 -105z m314 -245 c364 -22 378 -23 616 -46 92 -10 174 -22
182 -28 14 -10 14 -35 0 -221 -20 -289 -85 -918 -96 -931 -7 -8 -76 -10 -237
-7 -174 4 -290 0 -497 -16 -148 -12 -432 -26 -630 -31 -323 -9 -512 -20 -601
-36 -57 -10 -57 -13 -51 409 4 210 11 411 16 447 6 36 15 146 21 245 13 218
10 212 131 224 173 17 803 12 1146 -9z m1365 -113 c52 -31 115 -118 134 -185
20 -69 15 -182 -11 -232 -49 -95 -142 -175 -242 -209 -76 -26 -99 -26 -105 -3
-8 32 3 51 40 74 52 31 130 106 158 150 34 54 64 150 64 208 0 86 -53 162
-135 191 -49 18 -44 29 13 29 31 0 60 -8 84 -23z m-125 -127 c42 -25 55 -52
55 -112 -1 -111 -49 -198 -108 -198 -21 0 -24 5 -24 40 0 43 -14 54 -25 19 -5
-14 -14 -19 -28 -17 -29 4 -35 38 -8 45 12 3 21 13 21 24 0 19 -61 52 -145 79
-80 25 -86 52 -17 82 140 62 221 74 279 38z m-2627 -117 c0 -16 -5 -62 -11
-103 -5 -41 -11 -185 -13 -320 -3 -234 -4 -245 -22 -248 -11 -2 -39 11 -62 28
-53 38 -53 32 -10 373 34 276 41 297 93 297 21 0 25 -5 25 -27z m-114 -45 c-8
-39 -20 -53 -40 -45 -21 8 -20 36 1 59 27 30 47 23 39 -14z m2489 -3 c52 -23
78 -53 69 -80 -2 -5 -13 -75 -24 -155 -16 -105 -27 -151 -40 -165 -10 -11 -22
-44 -27 -74 -13 -86 -33 -78 -30 13 2 65 -1 78 -19 97 l-21 21 -12 -64 c-6
-34 -15 -87 -19 -117 -4 -30 -13 -56 -20 -59 -16 -5 -16 -5 17 241 17 118 33
248 37 291 5 53 11 76 20 76 7 0 38 -11 69 -25z m-2515 -105 c0 -13 -7 -20
-19 -20 -22 0 -35 15 -26 30 12 19 45 11 45 -10z m2648 -62 c-5 -34 -38 -37
-38 -4 0 20 5 26 21 26 15 0 20 -5 17 -22z m-2667 -50 c-9 -44 -44 -47 -49 -5
-4 37 14 60 38 47 14 -7 16 -17 11 -42z m3305 31 c42 -25 61 -56 45 -72 -13
-13 -15 -57 -2 -57 6 0 13 5 16 10 12 20 45 10 60 -20 20 -39 19 -57 -4 -65
-11 -3 -36 -17 -56 -31 -42 -28 -66 -25 -86 12 -7 15 -44 55 -82 90 -59 54
-67 66 -58 82 6 11 23 23 37 26 15 4 39 16 52 27 31 24 37 24 78 -2z m-3328
-137 c3 -16 -2 -22 -17 -22 -24 0 -35 15 -27 36 9 23 40 13 44 -14z m-13 -73
c11 -16 -4 -59 -19 -59 -23 0 -45 28 -39 50 6 22 47 28 58 9z m3165 -76 c53
-54 87 -100 111 -148 31 -64 34 -77 34 -165 0 -85 -3 -101 -29 -155 -80 -162
-250 -243 -486 -232 -109 6 -174 21 -275 65 -75 33 -95 47 -143 108 -56 72
-56 71 -27 108 20 26 28 52 35 115 5 45 12 87 16 94 18 31 49 57 78 63 17 4
54 17 82 29 54 24 56 27 71 127 l5 37 33 -34 c27 -30 39 -35 77 -35 64 0 155
26 223 65 91 52 106 49 195 -42z m347 29 c14 -9 43 -74 43 -96 0 -8 -24 -22
-60 -35 -60 -20 -61 -20 -80 -1 -26 26 -35 67 -20 85 11 13 83 52 100 54 3 0
10 -3 17 -7z m80 -202 c7 -14 15 -57 19 -94 l7 -69 -64 6 c-75 7 -93 23 -104
92 -7 53 2 71 49 84 50 15 79 9 93 -19z m-37 -221 c31 -6 50 -16 50 -24 0 -26
-40 -120 -62 -148 l-23 -28 -60 27 c-33 15 -62 28 -64 30 -2 2 9 37 24 79 31
84 34 86 135 64z m-1674 -47 c6 -4 20 -35 31 -70 l21 -64 -24 -10 c-35 -16
-48 -6 -72 63 -27 78 -27 77 1 82 12 2 24 5 27 5 3 1 10 -2 16 -6z m111 -47
c16 -70 15 -85 -3 -85 -15 0 -46 58 -60 113 -6 27 -5 28 22 25 26 -3 30 -9 41
-53z m67 -9 c19 -59 20 -74 4 -58 -17 17 -48 103 -41 114 8 14 19 -2 37 -56z
m66 29 c0 -12 5 -36 11 -54 6 -18 9 -35 5 -38 -8 -9 -59 105 -51 116 10 17 35
0 35 -24z m-432 13 c5 -7 15 -33 22 -58 6 -25 13 -52 16 -61 4 -13 -4 -18 -31
-21 -20 -2 -40 1 -44 6 -5 6 -12 37 -16 70 -6 45 -4 60 6 67 20 12 35 11 47
-3z m104 -43 c24 -74 23 -95 -6 -95 -21 0 -26 8 -40 65 -21 83 -20 87 7 83 17
-2 26 -15 39 -53z m-185 -20 c15 -72 11 -85 -21 -85 -50 0 -56 8 -56 74 0 71
4 78 39 74 22 -3 27 -10 38 -63z m-272 43 c3 -7 -1 -38 -8 -68 -10 -45 -17
-56 -35 -58 -13 -2 -25 3 -28 12 -7 19 23 113 39 120 20 8 27 6 32 -6z m81
-56 c0 -58 -2 -63 -24 -69 -38 -9 -46 8 -32 69 16 66 18 70 38 66 14 -3 17
-16 18 -66z m82 1 l-3 -68 -30 0 c-24 0 -30 4 -27 20 14 116 14 115 39 115 23
0 24 -2 21 -67z m-609 40 c-1 -26 -53 -108 -70 -110 -8 -2 -20 1 -27 6 -12 7
-11 14 2 39 19 36 19 42 6 42 -5 0 -16 -13 -25 -30 -21 -40 -62 -67 -78 -51
-8 8 -7 19 7 42 27 46 11 47 -18 0 -21 -33 -32 -41 -56 -41 -34 0 -36 8 -14
53 33 66 37 67 161 67 101 0 113 -2 112 -17z m171 8 c12 -8 11 -17 -9 -60 -24
-51 -47 -69 -64 -52 -5 5 -2 21 7 39 9 17 16 36 16 42 0 20 -20 0 -40 -41 -13
-25 -30 -41 -46 -45 -43 -11 -48 8 -18 70 l28 56 56 0 c30 0 62 -4 70 -9z
m110 -8 c0 -40 -33 -103 -57 -109 -39 -10 -48 8 -28 58 22 56 33 68 61 68 16
0 24 -6 24 -17z m90 0 c-1 -30 -44 -108 -60 -108 -19 0 -17 38 4 88 16 40 56
54 56 20z m-810 -1 c0 -4 -18 -26 -40 -47 -46 -45 -52 -37 -15 18 23 33 55 50
55 29z m160 2 c0 -14 -65 -94 -77 -94 -21 0 -15 18 19 61 27 34 58 51 58 33z
m2813 -129 c20 -14 37 -32 37 -40 0 -15 -61 -79 -92 -96 -14 -7 -18 -6 -18 5
0 8 5 16 12 18 24 8 -5 28 -42 28 -21 0 -42 5 -46 12 -8 13 77 98 98 98 7 0
30 -11 51 -25z m-880 -85 c93 -50 173 -80 213 -80 34 0 64 -31 71 -72 5 -34 3
-38 -15 -38 -11 0 -29 12 -40 27 -16 22 -23 25 -34 15 -12 -10 -24 -7 -63 13
-79 43 -258 185 -232 185 4 0 49 -22 100 -50z m-2259 15 c13 -53 -10 -99 -85
-164 -39 -33 -75 -61 -81 -61 -18 0 -128 62 -128 73 0 11 13 22 95 79 77 54
156 98 176 98 10 0 20 -11 23 -25z m311 5 c55 -5 260 -14 455 -21 329 -11 575
-9 1052 7 195 7 223 2 216 -35 -2 -12 -15 -14 -53 -12 -63 3 -330 -17 -370
-28 -53 -14 122 -23 291 -15 l154 7 0 -30 c0 -17 -6 -35 -12 -40 -7 -6 -88
-13 -181 -16 -92 -4 -175 -10 -184 -15 -26 -15 122 -25 247 -17 103 7 110 6
110 -11 0 -18 -71 -366 -91 -446 -8 -33 -15 -39 -52 -49 -23 -7 -78 -12 -122
-13 -120 -2 -186 -40 -114 -65 l32 -11 -7 -77 c-3 -42 -6 -109 -6 -150 0 -49
-4 -73 -12 -73 -6 0 -59 24 -117 54 -165 84 -271 106 -271 55 0 -11 -9 -21
-24 -25 -48 -12 -63 23 -21 50 23 15 24 18 18 102 -7 105 0 114 89 114 53 0
59 -2 68 -24 5 -13 8 -37 8 -52 -2 -84 3 -124 18 -138 8 -9 19 -16 24 -16 5 0
16 7 24 16 13 13 16 43 16 168 0 161 4 176 47 176 37 0 28 28 -9 32 l-33 3 -3
103 c-3 102 -3 102 23 112 48 18 85 12 117 -20 34 -35 54 -38 63 -10 9 29 -2
56 -36 85 -26 22 -40 25 -102 25 -70 1 -71 1 -44 16 29 16 36 51 15 72 -18 18
-144 14 -293 -8 -139 -21 -195 -24 -196 -12 -5 53 -13 80 -31 99 -25 27 -60
30 -84 6 -15 -16 -15 -18 10 -38 47 -37 26 -85 -38 -85 -38 0 -60 40 -53 95 5
35 4 45 -8 45 -23 0 -38 -40 -37 -102 l1 -58 -205 0 -205 0 -23 -25 c-13 -14
-29 -40 -36 -58 -19 -51 -26 -62 -44 -65 -27 -6 -56 27 -56 62 0 47 43 129 86
164 29 24 35 35 27 43 -9 9 -19 9 -43 -1 -85 -35 -154 -197 -120 -280 14 -34
55 -60 95 -60 24 0 65 -31 65 -49 0 -5 17 -19 38 -32 20 -12 43 -29 50 -37 14
-18 18 -317 4 -326 -5 -3 -41 -12 -80 -20 -40 -8 -117 -33 -173 -55 -56 -23
-105 -38 -110 -35 -22 13 -8 44 24 52 37 9 59 45 52 82 -3 14 -16 149 -30 300
-13 151 -34 348 -46 437 -12 89 -19 170 -15 179 7 18 -10 19 251 -6z m2659
-73 c33 -43 33 -61 1 -75 -32 -15 -55 -15 -55 -2 0 6 -16 10 -35 10 -19 0 -35
5 -35 10 0 6 5 10 10 10 26 0 6 19 -22 22 l-33 4 55 27 c71 35 84 34 114 -6z
m-193 -57 c11 -14 22 -40 25 -57 l7 -33 -51 0 c-61 0 -124 24 -116 44 4 10 -2
16 -18 18 -15 2 -23 10 -23 23 0 17 9 21 50 26 82 10 106 6 126 -21z m-2768
-287 c4 -186 2 -254 -6 -261 -7 -5 -43 -14 -81 -21 -39 -7 -109 -27 -156 -45
-122 -48 -228 -72 -243 -57 -22 22 102 236 230 396 84 105 234 258 243 248 4
-4 10 -121 13 -260z m-312 190 c15 -9 33 -29 39 -44 13 -31 0 -65 -45 -112
l-27 -28 -38 35 c-21 19 -48 39 -59 46 -30 15 -26 31 17 72 54 52 70 56 113
31z m1746 -79 c2 -6 -11 -18 -29 -27 -26 -11 -57 -14 -140 -10 l-106 6 -6 -44
c-3 -24 -7 -64 -9 -89 -1 -25 -6 -45 -12 -45 -14 0 -31 173 -18 186 9 9 254
38 297 35 11 0 21 -6 23 -12z m-733 -26 c16 -9 18 -18 12 -77 -3 -36 -6 -82
-6 -102 0 -41 -10 -49 -56 -42 -31 5 -31 6 -18 32 18 36 36 163 24 175 -13 13
-28 -1 -35 -34 -4 -17 -10 -30 -13 -31 -7 -1 -52 -6 -102 -11 -24 -3 -25 0
-23 41 4 76 2 74 106 66 50 -4 100 -11 111 -17z m350 6 c13 -5 16 -22 16 -80
0 -78 -10 -94 -59 -94 -27 0 -30 7 -33 78 -3 81 25 116 76 96z m-136 -19 c20
-15 22 -24 21 -111 0 -84 -2 -95 -17 -92 -13 3 -18 19 -24 77 -8 89 -28 120
-29 46 -2 -95 3 -150 13 -162 17 -20 60 -15 100 12 44 30 63 31 105 5 26 -15
38 -17 61 -9 24 8 36 6 65 -11 24 -14 49 -20 74 -18 l38 3 -43 23 c-53 28 -68
61 -46 103 14 27 58 58 68 48 3 -2 -1 -26 -7 -52 -9 -42 -8 -51 10 -75 16 -21
29 -28 67 -30 44 -3 46 -5 46 -33 0 -16 -1 -29 -2 -30 -2 0 -59 -4 -127 -9
-68 -4 -128 -13 -134 -19 -8 -8 -5 -11 12 -11 12 0 21 -3 19 -7 -2 -5 -14 -29
-26 -55 -19 -42 -25 -48 -53 -48 l-31 0 3 88 4 87 -96 3 c-124 3 -134 -4 -125
-92 13 -124 37 -167 74 -133 11 10 27 14 40 10 22 -5 23 -9 20 -107 -3 -95 -4
-101 -25 -104 -17 -2 -23 3 -28 27 -5 23 -14 33 -33 37 -15 3 -33 7 -39 10
-10 2 -13 35 -13 117 0 78 -4 119 -13 131 -10 14 -35 20 -98 27 -46 4 -115 14
-152 20 -58 11 -70 10 -78 -2 -6 -9 -3 -19 9 -29 9 -8 16 -25 14 -37 -4 -26 5
-28 113 -38 39 -4 76 -12 83 -17 15 -13 16 -102 2 -129 -7 -13 -21 -19 -45
-19 -33 0 -34 1 -41 48 -9 65 -17 72 -85 72 -68 0 -65 -6 -72 133 l-5 88 34
16 c29 14 39 15 73 3 22 -7 52 -10 68 -7 18 3 34 0 45 -10 14 -12 21 -13 32
-4 11 9 15 8 21 -6 6 -17 7 -17 21 1 9 13 14 48 15 105 0 47 3 104 7 126 6 34
12 41 37 46 47 10 49 10 73 -6z m-149 -52 c0 -32 -4 -78 -8 -103 -7 -37 -9
-27 -10 58 -1 62 3 102 9 102 6 0 10 -25 9 -57z m-1238 13 c19 -13 43 -39 53
-58 l19 -35 -39 -59 c-22 -32 -48 -60 -58 -62 -10 -2 -30 7 -44 20 -15 13 -39
30 -54 38 -16 7 -28 20 -28 29 0 18 95 151 108 151 4 0 23 -11 43 -24z m909
-81 c0 -16 -6 -25 -15 -25 -15 0 -21 31 -8 43 13 14 23 6 23 -18z m-1067 -126
c36 -19 87 -72 87 -91 0 -27 -42 -108 -57 -108 -7 0 -21 4 -31 10 -9 5 -34 16
-54 24 -47 19 -49 43 -11 121 29 59 32 61 66 44z m1662 -134 c0 -58 -1 -60
-27 -63 -28 -3 -28 -3 -28 56 0 65 5 74 35 70 18 -3 20 -10 20 -63z m373 33
c-3 -7 -22 -16 -44 -19 -111 -18 -114 -18 -114 -4 0 16 22 23 90 28 25 2 51 4
58 5 8 1 12 -4 10 -10z m-605 -50 c15 -8 17 -21 15 -105 -2 -66 -7 -98 -15
-101 -10 -3 -13 19 -13 87 0 100 -2 103 -73 116 -20 4 -39 10 -42 14 -6 10
106 1 128 -11z m-854 -300 c0 -290 15 -602 31 -661 6 -20 9 -41 6 -46 -3 -4
-99 -11 -214 -15 -115 -4 -225 -11 -244 -15 -66 -15 -63 -31 -61 391 1 211 5
417 10 458 l8 75 35 0 35 0 5 -75 c6 -81 18 -68 22 25 2 38 7 51 21 53 15 3
17 -7 17 -108 0 -72 4 -109 10 -105 6 3 10 48 10 100 0 107 5 125 31 125 18 0
19 -10 19 -179 0 -107 4 -182 10 -186 6 -4 11 63 12 182 3 187 3 187 27 199
45 23 51 11 51 -105 0 -58 3 -137 8 -176 6 -59 8 -41 12 115 5 179 6 185 26
188 21 3 22 -2 28 -115 4 -65 10 -134 13 -153 6 -33 7 -34 14 -10 4 14 7 84 8
156 1 72 4 134 8 137 3 4 14 7 24 7 17 0 18 -18 18 -262z m-636 217 c67 -38
69 -42 46 -110 -23 -69 -33 -78 -70 -59 -16 8 -37 14 -49 14 -11 0 -23 7 -27
16 -10 28 27 164 45 164 5 0 30 -11 55 -25z m1836 -19 c9 -11 8 -17 -4 -30 -9
-8 -21 -13 -28 -10 -7 2 -21 -2 -32 -10 -15 -11 -19 -25 -18 -62 1 -35 -1 -43
-7 -29 -10 24 -12 81 -4 113 4 14 18 25 38 31 43 13 42 13 55 -3z m-530 -24
c5 -9 8 -40 6 -67 -2 -28 0 -71 5 -97 5 -36 4 -48 -5 -48 -19 0 -25 24 -25 98
0 80 -6 91 -49 97 -38 4 -46 9 -36 24 11 19 93 13 104 -7z m-51 -85 c2 -16 1
-36 -3 -45 -5 -15 -9 -13 -25 8 -11 14 -20 35 -20 48 0 19 5 23 23 20 16 -2
23 -11 25 -31z m585 -19 c7 -47 -10 -75 -37 -65 -12 5 -16 20 -16 57 0 46 2
50 24 50 20 0 24 -6 29 -42z m-445 -56 c3 -39 1 -42 -22 -42 -24 0 -26 4 -26
39 0 37 12 53 35 47 6 -1 11 -21 13 -44z m-211 -12 c12 -23 19 -169 8 -158 -3
3 -12 31 -20 62 -8 31 -22 67 -31 81 -9 13 -13 29 -9 35 11 18 38 7 52 -20z
m-1220 -10 c31 -8 40 -15 38 -28 -16 -77 -10 -71 -75 -69 l-60 2 0 38 c0 49
16 79 38 73 9 -3 36 -10 59 -16z m1116 -8 c26 -29 38 -106 29 -185 -5 -40 -7
-89 -4 -111 3 -26 0 -41 -9 -47 -25 -16 -29 -10 -29 44 -1 74 -24 196 -48 250
-19 43 -20 47 -4 57 26 14 47 12 65 -8z m-119 -63 c25 -82 30 -169 16 -278 -9
-71 -18 -109 -32 -126 -31 -40 -48 -32 -48 23 0 150 -81 424 -116 390 -3 -3 5
-52 17 -109 31 -149 31 -429 0 -429 -8 0 -23 152 -36 350 -3 47 -8 103 -10
125 -3 22 -1 46 3 53 10 14 123 50 164 51 24 1 29 -5 42 -50z m1176 27 c0 -2
-15 -33 -34 -68 -19 -36 -40 -91 -47 -123 -23 -103 -66 -83 -74 35 -8 100 4
123 68 130 26 3 52 11 59 18 11 11 28 16 28 8z m118 -36 c17 -11 32 -21 32
-23 0 -2 -20 -42 -45 -90 -25 -48 -45 -99 -45 -112 0 -33 -13 -38 -56 -20
l-37 15 6 63 c3 34 13 82 22 107 29 81 61 97 123 60z m-349 -4 c10 -11 10 -20
0 -37 -7 -14 -10 -49 -7 -95 l5 -73 -41 -6 c-23 -3 -95 -10 -161 -15 -109 -10
-121 -9 -132 7 -7 9 -13 23 -13 30 0 12 10 16 78 27 71 12 129 80 117 136 -6
27 -4 29 32 33 83 8 111 7 122 -7z m-441 -51 c2 -27 1 -82 -3 -122 -8 -84 -1
-79 -132 -89 l-92 -6 15 42 c8 24 17 79 20 124 3 44 7 87 10 94 3 9 26 12 91
10 l88 -3 3 -50z m884 -169 c-2 -106 -7 -176 -13 -176 -15 0 -66 87 -73 124
-4 19 -2 56 4 83 11 47 68 155 79 148 3 -1 5 -82 3 -179z m-2512 64 c22 -11
42 -20 45 -20 4 0 3 9 0 20 -15 47 80 4 116 -52 17 -28 20 -45 16 -106 -5 -96
-16 -106 -65 -61 -107 101 -209 112 -291 30 -33 -33 -48 -63 -78 -151 -4 -10
-10 -3 -20 20 -18 42 -12 123 12 169 39 75 152 171 202 171 13 0 41 -9 63 -20z"/>
<path d="M6203 6513 c-25 -10 -13 -53 30 -100 120 -136 292 -259 350 -251 32
4 25 38 -15 68 -18 13 -90 80 -159 147 -133 129 -168 152 -206 136z"/>
<path d="M5493 6388 c-165 -157 -246 -229 -314 -280 -38 -28 -69 -57 -69 -66
0 -56 274 121 464 301 51 48 57 58 54 88 -6 61 -36 51 -135 -43z"/>
<path d="M6249 6141 c-27 -27 -31 -37 -26 -68 10 -60 70 -89 115 -56 21 16 28
30 30 65 3 49 -13 71 -60 83 -22 6 -33 1 -59 -24z"/>
<path d="M5448 6078 c-46 -35 -40 -112 9 -125 57 -14 110 55 82 106 -17 30
-64 40 -91 19z"/>
<path d="M6715 4971 c-25 -5 -27 -8 -12 -14 25 -10 119 -9 135 2 9 5 1 10 -25
14 -43 8 -56 7 -98 -2z"/>
<path d="M6693 4893 c-45 -9 -22 -23 37 -23 33 0 60 4 60 10 0 6 -11 10 -24
10 -13 0 -30 2 -38 4 -7 2 -23 1 -35 -1z"/>
<path d="M6588 4798 c-56 -20 -22 -38 74 -38 68 0 83 15 34 35 -40 17 -69 18
-108 3z"/>
<path d="M5534 4679 c-3 -5 -3 -13 1 -18 7 -12 85 -25 111 -19 18 4 18 5 -2
16 -32 17 -103 31 -110 21z"/>
<path d="M7675 4087 c-45 -21 -55 -54 -55 -176 0 -126 0 -126 105 -167 87 -34
201 -39 252 -11 53 28 65 63 59 174 -5 110 -18 136 -81 167 -51 26 -234 34
-280 13z m259 -101 c15 -10 26 -25 24 -34 -4 -22 -83 -44 -133 -37 -74 10
-127 59 -97 89 14 15 178 1 206 -18z m-56 -130 c89 1 92 0 92 -22 0 -46 -40
-62 -135 -55 -53 4 -104 21 -131 44 -22 19 -25 28 -20 54 l7 31 47 -27 c42
-23 57 -26 140 -25z"/>
<path d="M7363 3894 c-23 -26 -55 -72 -70 -103 -24 -48 -28 -68 -28 -143 0
-94 15 -129 66 -155 202 -103 259 -114 369 -73 80 30 88 49 64 142 -3 9 -19
21 -36 27 -48 17 -99 -12 -114 -64 -11 -41 -34 -55 -63 -36 -12 8 -8 15 18 36
46 39 64 80 58 129 -6 44 -39 81 -82 92 -52 13 -113 -46 -136 -130 -14 -53
-17 -56 -35 -49 -24 9 -44 59 -44 112 0 72 35 156 85 207 24 23 41 45 37 48
-16 17 -50 1 -89 -40z m177 -257 c0 -17 -34 -49 -43 -41 -3 3 -1 17 5 30 12
26 38 33 38 11z"/>
<path d="M2794 3861 c-18 -11 -38 -36 -47 -60 -9 -23 -22 -41 -28 -41 -6 0 -7
-5 -2 -12 4 -7 10 -43 14 -80 5 -51 13 -78 39 -117 35 -55 34 -81 -2 -81 -37
0 -86 36 -109 81 -15 31 -21 62 -22 122 -2 78 -1 81 23 87 23 6 21 7 -14 14
-23 4 -43 3 -49 -3 -6 -6 -12 -46 -15 -89 -6 -100 14 -172 63 -229 43 -51 86
-67 135 -52 19 6 96 12 170 13 l135 3 120 59 c119 59 120 60 120 95 0 32 -2
34 -35 34 -49 0 -57 8 -62 60 -7 54 -49 122 -84 135 -54 21 -107 -18 -120 -86
-7 -41 -24 -45 -24 -6 0 15 -11 51 -25 79 -39 85 -113 115 -181 74z m102 -126
c17 -46 10 -137 -11 -155 -11 -9 -19 -3 -39 27 -26 38 -32 80 -20 142 6 27 11
32 31 29 19 -2 29 -13 39 -43z m140 -173 c8 -18 12 -38 9 -43 -8 -12 -62 -12
-69 0 -3 5 2 39 12 76 17 66 17 66 25 33 5 -18 15 -48 23 -66z"/>
<path d="M3440 3400 c-25 -5 -78 -20 -119 -34 -41 -14 -108 -33 -150 -41 -41
-9 -77 -18 -79 -20 -3 -2 -2 -12 2 -21 6 -15 17 -16 89 -11 101 7 224 45 288
89 71 48 66 55 -31 38z"/>
<path d="M4355 3311 c-8 -14 4 -19 76 -30 73 -12 182 -13 219 -1 l25 7 -25 7
c-35 9 -196 26 -247 26 -23 0 -44 -4 -48 -9z"/>
<path d="M4357 2620 c-136 -35 -222 -146 -234 -305 -18 -233 130 -386 360
-373 85 5 135 21 215 72 l42 26 0 125 0 126 -142 -3 -143 -3 0 -35 0 -35 98
-3 97 -3 0 -64 0 -64 -57 -28 c-123 -60 -265 -35 -332 57 -56 77 -64 209 -20
309 40 91 102 130 207 131 98 0 156 -33 188 -108 13 -28 18 -31 42 -26 39 9
45 18 37 54 -10 44 -71 109 -124 133 -50 22 -176 31 -234 17z"/>
<path d="M6617 2616 c-82 -22 -173 -114 -199 -199 -7 -23 -13 -87 -13 -142 0
-89 3 -106 28 -157 35 -72 111 -141 179 -164 73 -24 187 -16 253 18 131 68
194 214 166 385 -35 203 -211 313 -414 259z m198 -85 c84 -38 129 -123 128
-241 0 -95 -14 -145 -54 -193 -105 -128 -300 -102 -375 49 -15 31 -19 61 -19
139 0 93 2 104 31 155 25 43 42 61 84 83 64 33 144 36 205 8z"/>
<path d="M8745 2621 c-59 -15 -106 -44 -150 -93 -81 -91 -106 -237 -64 -374
27 -89 106 -171 188 -197 164 -52 328 16 397 166 26 55 29 73 29 162 0 87 -4
107 -26 155 -56 120 -145 181 -272 186 -40 2 -85 0 -102 -5z m207 -106 c63
-44 100 -123 102 -218 2 -103 -18 -162 -74 -218 -111 -110 -292 -75 -357 70
-21 45 -23 199 -4 256 17 50 64 102 116 127 62 29 161 22 217 -17z"/>
<path d="M1333 2608 c-6 -7 -74 -104 -152 -215 -125 -179 -141 -206 -141 -242
l0 -40 143 -3 142 -3 3 -77 3 -78 39 0 40 0 0 80 0 80 45 0 c44 0 45 0 45 34
0 37 -12 46 -61 46 l-29 0 0 215 0 215 -34 0 c-18 0 -38 -6 -43 -12z m-5 -275
l-3 -138 -97 -3 c-54 -1 -98 0 -98 3 0 12 184 275 192 275 5 0 7 -62 6 -137z"/>
<path d="M1715 2604 c-76 -42 -112 -108 -128 -235 -22 -175 18 -334 100 -396
33 -25 44 -28 114 -28 71 0 80 2 115 31 77 62 111 184 101 358 -8 119 -42 206
-101 251 -47 35 -153 46 -201 19z m154 -80 c20 -16 36 -44 46 -77 20 -68 20
-266 0 -334 -41 -139 -189 -139 -230 0 -20 68 -20 266 0 334 20 66 61 103 115
103 27 0 48 -8 69 -26z"/>
<path d="M2344 2568 c-21 -29 -91 -129 -157 -222 -97 -140 -117 -175 -115
-200 l3 -31 142 -3 142 -3 3 -77 3 -77 40 0 40 0 3 77 3 77 42 3 c41 3 42 4
42 38 0 34 -1 35 -42 38 l-43 3 -2 212 -3 212 -31 3 c-28 3 -36 -3 -70 -50z
m14 -309 l-3 -71 -88 0 c-49 0 -91 3 -94 6 -4 3 7 25 24 49 17 23 59 84 94
136 l64 94 3 -71 c2 -40 2 -104 0 -143z"/>
<path d="M2965 2607 c-3 -7 -4 -156 -3 -332 l3 -320 42 -3 42 -3 3 133 3 133
135 6 c167 7 215 24 253 90 50 89 42 182 -22 249 -48 50 -99 60 -297 60 -115
0 -156 -3 -159 -13z m386 -105 c24 -27 29 -41 29 -83 0 -42 -5 -55 -28 -79
-34 -34 -80 -42 -207 -38 l-90 3 -3 104 c-1 58 0 111 3 119 4 11 30 13 136 11
l131 -4 29 -33z"/>
<path d="M3642 2463 c-163 -424 -192 -500 -192 -507 0 -4 21 -6 46 -4 l47 3
35 98 35 98 140 -3 141 -3 38 -95 37 -95 52 -3 c39 -2 50 0 46 10 -3 7 -21 51
-40 98 -19 47 -67 164 -107 260 -39 96 -83 203 -97 238 l-25 62 -47 0 -48 0
-61 -157z m138 -10 c13 -38 36 -101 52 -142 16 -40 26 -76 23 -80 -9 -8 -181
-15 -200 -7 -12 4 -10 15 10 68 13 35 37 100 52 146 15 45 30 82 33 82 4 0 17
-30 30 -67z"/>
<path d="M4870 2285 l0 -335 251 0 250 0 -3 38 -3 37 -202 3 -203 2 0 110 0
110 169 0 c93 0 176 3 185 6 10 4 16 18 16 40 l0 34 -182 2 -183 3 -3 103 -3
102 196 0 195 0 0 40 0 40 -240 0 -240 0 0 -335z"/>
<path d="M5750 2285 l0 -336 43 3 42 3 3 190 c1 105 3 217 5 251 l2 61 170
-254 170 -253 45 2 45 3 0 330 0 330 -42 3 -43 3 -2 -258 -3 -258 -171 255
-170 255 -47 3 -47 3 0 -336z"/>
<path d="M7100 2580 l0 -40 110 0 110 0 0 -295 0 -295 45 0 45 0 0 295 0 295
110 0 110 0 0 40 0 40 -265 0 -265 0 0 -40z"/>
<path d="M7970 2285 l0 -335 45 0 45 0 0 150 0 150 155 0 155 0 0 40 0 39
-152 3 -153 3 -3 103 -3 102 181 0 180 0 0 40 0 40 -225 0 -225 0 0 -335z"/>
<path d="M9264 2605 c-11 -28 3 -479 16 -520 16 -51 83 -117 137 -133 57 -17
171 -15 226 4 67 23 121 86 136 160 6 33 11 153 11 281 l0 223 -44 0 -45 0 -3
-247 c-3 -269 -7 -287 -61 -327 -39 -29 -151 -35 -197 -11 -79 41 -90 85 -90
370 l0 215 -40 0 c-27 0 -43 -5 -46 -15z"/>
<path d="M9940 2285 l0 -335 40 0 40 0 2 258 3 257 173 -257 172 -258 45 0 45
0 0 335 0 335 -40 0 -40 0 0 -256 c0 -213 -2 -255 -13 -245 -8 6 -87 121 -177
256 l-163 245 -44 0 -43 0 0 -335z"/>
<path d="M10610 2286 l0 -336 158 0 c173 0 206 6 274 49 36 23 53 44 79 97 33
67 34 72 34 194 0 112 -3 130 -24 174 -29 58 -75 106 -127 131 -33 16 -68 20
-216 23 l-178 4 0 -336z m326 243 c55 -14 106 -69 124 -134 18 -66 9 -210 -17
-260 -45 -87 -87 -105 -240 -105 l-103 0 0 255 0 255 96 0 c52 0 115 -5 140
-11z"/>
<path d="M2610 2190 l0 -40 124 0 c75 0 127 4 131 10 4 6 4 24 0 40 l-7 30
-124 0 -124 0 0 -40z"/>
</g>
</svg>
